<svg id="Group_244" data-name="Group 244" xmlns="http://www.w3.org/2000/svg" width="242.258" height="171.592" viewBox="0 0 242.258 171.592">
  <path id="Path_843" data-name="Path 843" d="M-687.88,645.513l-2.949,14.3,57.338,16.94,30.434,8.665,15.908-2.535V671.425Z" transform="translate(749.202 -553)" fill="#20a1b7"/>
  <path id="Path_844" data-name="Path 844" d="M-660.94,622.989a16.516,16.516,0,0,1,10.947,5.222c4.991,5.214,8,12.057,9.528,14.335s7.317,9.652,14.861,9.652-3.8,4.367-3.8,4.367l-9.7-5.066-17.98-22.045-4.31-4.983Z" transform="translate(749.202 -553)" fill="#7ee8ff"/>
  <path id="Path_845" data-name="Path 845" d="M-674.728,623.707l13.335,29.455,29.266,3.4L-654.644,629.4l-12.536-10.493-8.79.567S-681.768,619.378-674.728,623.707Z" transform="translate(749.202 -553)" fill="#fff"/>
  <path id="Path_846" data-name="Path 846" d="M-655.369,627.378a23.566,23.566,0,0,1,8.3,7.663c2.511,3.756,5.416,9.358,9.415,13.385a67.681,67.681,0,0,0,7.345,6.149l-3.148-.108-9.954-7.6-11.825-16.051Z" transform="translate(749.202 -553)" fill="#62d9ed"/>
  <path id="Path_847" data-name="Path 847" d="M-661.942,631.383s7.408,9.005,9.567,11.163c3.289,3.29,14.236,9.992,15.937,12.772l4.935-.681a48.445,48.445,0,0,1-8.054-7.26,104.6,104.6,0,0,1-8.321-12.393c-2.767-4.811-9.318-9.292-13.005-10.672h-2.666S-663.17,628.887-661.942,631.383Z" transform="translate(749.202 -553)" fill="#7ee8ff"/>
  <path id="Path_848" data-name="Path 848" d="M-537.354,694.192s-8.651.276-12.255-1.066-5.546,4.537-4.714,8.252,14.141,4.6,17.191,4.021,2.884-9.444,2.884-9.444Z" transform="translate(749.202 -553)" fill="#ffb48a"/>
  <path id="Path_849" data-name="Path 849" d="M-518.753,705.4a33.439,33.439,0,0,0,9.247-9.444c3.328-5.591,2.691-8.108,2.044-9.088-.779-1.178-2.681-1.183-3.845-.018s.406,6.057-3.254,9.683a58.2,58.2,0,0,1-7.764,6.344S-521.969,703.957-518.753,705.4Z" transform="translate(749.202 -553)" fill="#c54e29"/>
  <path id="Path_850" data-name="Path 850" d="M-535.376,697.648s-2.514.292-2.625-1.519.37-1.923,0-3.254,3.18-1.885,6.36-1.479,11.165-.554,15.084-2.329,2.7,4.3,2.7,4.3l-10.5,6.275Z" transform="translate(749.202 -553)" fill="#ffd9aa"/>
  <path id="Path_851" data-name="Path 851" d="M-537.853,704.429a8.729,8.729,0,0,0,1.609-5.435c-.056-3.438,4.464-1.3,8.928-1.893,4.585-.6,9.409-1.619,10.685-3.782s-1.424-3.265-.2-4.318,5.879-3.6,6.877-2.385.3,4.281-1.644,7.775-6.342,7.6-10.667,10.038-10.925,4.747-14.364,4.564S-537.853,704.429-537.853,704.429Z" transform="translate(749.202 -553)" fill="#f77b4f"/>
  <path id="Path_852" data-name="Path 852" d="M-531.752,698.309a.129.129,0,0,1-.054-.012.133.133,0,0,1-.068-.175,13.051,13.051,0,0,0,.7-6.649.133.133,0,0,1,.11-.152.122.122,0,0,1,.152.11,13.327,13.327,0,0,1-.716,6.8A.131.131,0,0,1-531.752,698.309Z" transform="translate(749.202 -553)" fill="#800303"/>
  <path id="Path_853" data-name="Path 853" d="M-528.387,698.433a.125.125,0,0,1-.028,0,.133.133,0,0,1-.1-.158,24.815,24.815,0,0,0,.345-6.83.132.132,0,0,1,.118-.146.12.12,0,0,1,.145.119,25.067,25.067,0,0,1-.348,6.913A.133.133,0,0,1-528.387,698.433Z" transform="translate(749.202 -553)" fill="#800303"/>
  <path id="Path_854" data-name="Path 854" d="M-525.687,698.309l-.028,0a.133.133,0,0,1-.1-.158,22.708,22.708,0,0,0,.286-6.944.132.132,0,0,1,.112-.151.124.124,0,0,1,.151.112,22.98,22.98,0,0,1-.289,7.039A.134.134,0,0,1-525.687,698.309Z" transform="translate(749.202 -553)" fill="#800303"/>
  <path id="Path_855" data-name="Path 855" d="M-522.467,697.781l-.024,0a.133.133,0,0,1-.107-.155,16.656,16.656,0,0,0-.233-6.8.133.133,0,0,1,.085-.168.135.135,0,0,1,.168.085,16.954,16.954,0,0,1,.242,6.932A.134.134,0,0,1-522.467,697.781Z" transform="translate(749.202 -553)" fill="#800303"/>
  <path id="Path_856" data-name="Path 856" d="M-519.344,696.7h-.005a.134.134,0,0,1-.128-.138,21.2,21.2,0,0,0-.812-6.275.134.134,0,0,1,.085-.168.135.135,0,0,1,.168.085,21.534,21.534,0,0,1,.825,6.368A.133.133,0,0,1-519.344,696.7Z" transform="translate(749.202 -553)" fill="#800303"/>
  <path id="Path_857" data-name="Path 857" d="M-682.02,655.726s3.555,2.957,4.991,4.091,4.632,5.18,8.5,3.327-4.075-7.493-4.075-7.493Z" transform="translate(749.202 -553)" fill="#7ee8ff"/>
  <path id="Path_858" data-name="Path 858" d="M-551.258,701.963s6.137,2.762,11.165,2.25l-.407,1.706-12.274-1.257S-553.92,702.961-551.258,701.963Z" transform="translate(749.202 -553)" fill="#ff8053"/>
  <path id="Path_859" data-name="Path 859" d="M-548.944,718.063c-1.148-3.825,2-3.1-7.986-9.765a4.817,4.817,0,0,1,2.607-6.92s8.167,4.688,16.138,3.579C-538.9,705.057-538.421,714.949-548.944,718.063Z" transform="translate(749.202 -553)" fill="#ffb48a"/>
  <path id="Path_860" data-name="Path 860" d="M-539.572,707.257s-2.667-1.758-1.678-3.3,2.621-1.583,4.673-.585,6.433,1.5,12.921-.666-6.236,4.825-6.236,4.825S-538.995,708.921-539.572,707.257Z" transform="translate(749.202 -553)" fill="#ffd9aa"/>
  <path id="Path_861" data-name="Path 861" d="M-546.726,723.265a14.784,14.784,0,0,1-2.595-8.058,4.833,4.833,0,0,0,5.939-2.682c1.869-4.048,1.869-6.416,4.919-6.527s6.433.089,9.206-.815,5.934-4.465,8.984-3.164a6.654,6.654,0,0,1,3.66,4.572l-25.288,16.36Z" transform="translate(749.202 -553)" fill="#f77b4f"/>
  <ellipse id="Ellipse_141" data-name="Ellipse 141" cx="5.594" cy="2.652" rx="5.594" ry="2.652" transform="translate(122.562 102.318)" fill="#f7ab86"/>
  <path id="Path_862" data-name="Path 862" d="M-546.726,723.265s4.748-2.327,8.042-3.974c2.994-1.5,8.836-7.043,10.592-9.65s6.765-6.71,10.141-5.445c2.71,1.016,1.948,6.126-2.1,8.939s-11.979,5.879-14.641,7.93C-538.425,723.943-545.339,726.094-546.726,723.265Z" transform="translate(749.202 -553)" fill="#c54e29"/>
  <path id="Path_863" data-name="Path 863" d="M-538.186,706.836a.089.089,0,0,1-.032-.005.131.131,0,0,1-.1-.16,4.76,4.76,0,0,1,2.769-3.01.132.132,0,0,1,.174.072.133.133,0,0,1-.072.173,4.571,4.571,0,0,0-2.614,2.829A.134.134,0,0,1-538.186,706.836Z" transform="translate(749.202 -553)" fill="#800303"/>
  <path id="Path_864" data-name="Path 864" d="M-534.969,707h0a.134.134,0,0,1-.131-.135,3.882,3.882,0,0,1,1.522-2.818.132.132,0,0,1,.186.024.132.132,0,0,1-.024.186,3.678,3.678,0,0,0-1.418,2.612A.133.133,0,0,1-534.969,707Z" transform="translate(749.202 -553)" fill="#800303"/>
  <path id="Path_865" data-name="Path 865" d="M-578.575,691.822s13.961,9.029,21.6,18.285c0,0,5.18-2.42,5.861-10.55Z" transform="translate(749.202 -553)" fill="#5d3c8b"/>
  <path id="Path_866" data-name="Path 866" d="M-696.728,636.034s-7.033,5.091-9.189,12.754-.34,11.521-1.248,16.172-1.914,14.889,1.248,22.967c5.1,13.037-5.331,28.873,9.869,30.914,10.3,1.385,27.518,3.4,56.6,2.723,10.888-.255,49-1.321,57.172-9.338,0,0,4.084-12.9,0-30.138l-9.624-5.614a42.487,42.487,0,0,1-13.3,2.393c-7.6.156-15.571-2.9-15.571-2.9l-27.113-8a43.022,43.022,0,0,0-13.886-3.226c-7.059-.227-6.931-3.038-13.4-3.5S-695.988,642.1-696.728,636.034Z" transform="translate(749.202 -553)" fill="#20a1b7"/>
  <path id="Path_867" data-name="Path 867" d="M-532.168,706.836a.133.133,0,0,1-.127-.094,2.332,2.332,0,0,1,1.025-2.644.135.135,0,0,1,.182.047.132.132,0,0,1-.047.181,2.064,2.064,0,0,0-.907,2.337.131.131,0,0,1-.087.166A.133.133,0,0,1-532.168,706.836Z" transform="translate(749.202 -553)" fill="#800303"/>
  <path id="Path_868" data-name="Path 868" d="M-529.659,706.586a.135.135,0,0,1-.129-.1,2.97,2.97,0,0,1,.788-2.582.133.133,0,0,1,.188-.013.133.133,0,0,1,.013.187,2.7,2.7,0,0,0-.731,2.34.134.134,0,0,1-.095.162A.2.2,0,0,1-529.659,706.586Z" transform="translate(749.202 -553)" fill="#800303"/>
  <path id="Path_869" data-name="Path 869" d="M-575.594,693.852a24.842,24.842,0,0,0,5.535,2.078c3.214.792,9.921,3.314,18.081,7.819l.239-.675-3.762-5.71-19.852-5.785-3.222.243Z" transform="translate(749.202 -553)" fill="#4d1e6e"/>
  <path id="Path_870" data-name="Path 870" d="M-598.213,656.117s9.7,1.583,15.827,2.177c6.693.65,11.225,3.431,13.569,7.817s6.585,17.366,16.265,28.921l-21.477-9.049-35.921-27.376,1.512-2.956Z" transform="translate(749.202 -553)" fill="#183a49"/>
  <path id="Path_871" data-name="Path 871" d="M-609.664,658.048s4.862-.9,13.329.246,12.623,4.777,15.345,7.5,13.153,13.357,21.17,18.81l1.142,1.8-9.793-3.214-42.084-23.253Z" transform="translate(749.202 -553)" fill="#0b242d"/>
  <path id="Path_872" data-name="Path 872" d="M-619.479,677.589s18.469.558,25.071.1,6.767-8.121,6.464-10.617.378-6.49-6.05-7.858-19.5-1.493-25.485-.612-21.628,1.513-21.628,1.513-10.814,2.811-7.941,8.022S-631.881,678.5-619.479,677.589Z" transform="translate(749.202 -553)" fill="#183a49"/>
  <path id="Path_873" data-name="Path 873" d="M-593.141,659.43s7.024,1.368,13.219,8.44,20.526,19.172,32.248,23.936c.146,3.016.452,7.194-4.065,11.268,0,0-10.644-5.672-18.358-7.865s-23.367-9.982-25.031-20.04S-599.191,662.531-593.141,659.43Z" transform="translate(749.202 -553)" fill="#183a49"/>
  <path id="Path_874" data-name="Path 874" d="M-663.189,625.182s1.1.075,2.306,1.834a8.878,8.878,0,0,0,.265-5.086S-662.093,621.7-663.189,625.182Z" transform="translate(749.202 -553)" fill="#62d9ed"/>
  <path id="Path_875" data-name="Path 875" d="M-661.942,631.383s-.718-4.5-.3-6.315l-.945-.756S-663.53,628.812-661.942,631.383Z" transform="translate(749.202 -553)" fill="#62d9ed"/>
  <path id="Path_876" data-name="Path 876" d="M-669.126,619.81s3.744,3.594,4.764,6.619a20.225,20.225,0,0,0,2.42,4.954,21.23,21.23,0,0,1-.794-5.559,5.729,5.729,0,0,1,2.118-3.894,10.355,10.355,0,0,0-3.365-3.025,40.1,40.1,0,0,1-4.651-3.441A7.7,7.7,0,0,0-669.126,619.81Z" transform="translate(749.202 -553)" fill="#7ee8ff"/>
  <path id="Path_877" data-name="Path 877" d="M-645.418,663.825a61.944,61.944,0,0,1,10.846-3.634c4.659-.887-3.17-3.626-3.17-3.626l-16.978,1.729,6.353,7.2Z" transform="translate(749.202 -553)" fill="#dddee2"/>
  <path id="Path_878" data-name="Path 878" d="M-684.952,620.569a7.95,7.95,0,0,1-3.949,2.854c-2.8,1-8.6,3.947-9.026,7.088s8.421,12.035,8.421,12.035l30.627,8.953a61.514,61.514,0,0,0-2.885-10.361c-1.8-4.386-2.326-7.731-4.791-10.965l-4.962-4.575-6.42-2.609Z" transform="translate(749.202 -553)" fill="#7ee8ff"/>
  <path id="Path_879" data-name="Path 879" d="M-669.263,662.8a29.1,29.1,0,0,0,10.876,4.513c5.671.832,12,.978,14.575.524s3.4-2.42,5.671-1.739c0,0-.453-3.111-4.84-2.69s-9.679-6.529-9.679-6.529S-671.855,651.858-669.263,662.8Z" transform="translate(749.202 -553)" fill="#7ee8ff"/>
  <path id="Path_880" data-name="Path 880" d="M-705.917,648.788c-2.155,7.664-.34,11.521-1.248,16.172s-1.914,14.889,1.248,22.967c5.1,13.037-5.331,28.873,9.869,30.914,10.3,1.385,27.518,3.4,56.6,2.723,10.888-.255,49-1.321,57.172-9.338a33.513,33.513,0,0,0,.83-3.557c-23.518,8.7-89.329,4.393-100.36,1.438-11.519-3.086-10.888-11.68-10.73-18.285s2.7-14.828.157-21.721c-2.336-6.323,3.167-18.309,3.838-19.915-4.292-5.342-7.833-11.218-8.191-14.152C-696.728,636.034-703.761,641.125-705.917,648.788Z" transform="translate(749.202 -553)" opacity="0.07"/>
  <path id="Path_881" data-name="Path 881" d="M-676.29,625.976a2.046,2.046,0,0,0,1.681.075,2.948,2.948,0,0,1,3.517.553,16.037,16.037,0,0,0,4.537,3.569,21.352,21.352,0,0,0-4.367-5.086l-2.023-1.38-3.345,1.248Z" transform="translate(749.202 -553)" fill="#62d9ed"/>
  <path id="Path_882" data-name="Path 882" d="M-620.765,651.045a18.67,18.67,0,0,1,5.748-.321c2.987.34,4.575,1.682,4.688,3.611s-2.117,3.378-2.117,3.378h-2.911Z" transform="translate(749.202 -553)" fill="#ffba94"/>
  <path id="Path_883" data-name="Path 883" d="M-682.229,613.876s.625-.87,3.386-.567-1.929,5.18-1.929,5.18A5.562,5.562,0,0,1-682.229,613.876Z" transform="translate(749.202 -553)" fill="#62d9ed"/>
  <g id="Group_183" data-name="Group 183" transform="translate(749.202 -553)">
    <path id="Path_884" data-name="Path 884" d="M-683.59,601.8a38.257,38.257,0,0,1,1.268,6.386,3.367,3.367,0,0,0,2.937.377c1.22-.383-1.4-6.322-1.4-6.322S-682.358,600-683.59,601.8Z" fill="#183a49"/>
    <path id="Path_885" data-name="Path 885" d="M-680.545,603.981s.115,15.469,0,17.933,7.85,3.037,9.855,2.693a3.405,3.405,0,0,0,2.521-2.464,31.128,31.128,0,0,1,0-8.422C-667.539,609.023-668,601.861-680.545,603.981Z" fill="#ffba94"/>
    <path id="Path_886" data-name="Path 886" d="M-679.881,606.951s1.132,5.871,5.527,7.75a12.565,12.565,0,0,0,5.974,1.151l.154-1.486Z" fill="#f7ab86"/>
    <path id="Path_887" data-name="Path 887" d="M-681.748,596.7s-.114,9,2.12,12.376,5.921,6.638,12.032,6.073c6.045-.558,7.219-8.938,7.448-11.8s1.261-12.491,0-16.444-5.213-7.219-9.052-7.219S-682.607,580.433-681.748,596.7Z" fill="#ffba94"/>
    <path id="Path_888" data-name="Path 888" d="M-679.35,599.314s4.074-2.512,4.131-9.674c0,0,7.952,2.586,15.221.749a55.083,55.083,0,0,1,.362,6.177,9.443,9.443,0,0,0,1.952-8.57s1.851-8.6-5.11-11.926c-6.448-3.078-20.959-2.169-21.589,8.431,0,0-6.072,2.005-3.323,8.193,1.963,4.419,3.223,5.719,3.38,8.24C-684.326,600.934-681.161,603.268-679.35,599.314Z" fill="#183a49"/>
    <path id="Path_889" data-name="Path 889" d="M-679.006,597.593a2.577,2.577,0,0,0-3.644-1.3,3.1,3.1,0,0,0-1.608,2.089c-.654,2.768.694,6.11,3.172,5.864C-679.124,604.055-677.971,600.307-679.006,597.593Z" fill="#ffba94"/>
    <path id="Path_890" data-name="Path 890" d="M-671.317,588.827s3.393,3.243,10.9,2.426c0,0-5.774.289-8.222-1.98Z" fill="#1e1e1e"/>
    <path id="Path_891" data-name="Path 891" d="M-684.112,585.141a.133.133,0,0,1-.124-.085,1.014,1.014,0,0,0-.589-.655,1.4,1.4,0,0,0-1.02.166.132.132,0,0,1-.182-.044.132.132,0,0,1,.043-.182,1.641,1.641,0,0,1,1.244-.191,1.265,1.265,0,0,1,.752.81.134.134,0,0,1-.076.172A.162.162,0,0,1-684.112,585.141Z" fill="#1e1e1e"/>
    <path id="Path_892" data-name="Path 892" d="M-657.9,587.261a.124.124,0,0,1-.075-.024.132.132,0,0,1-.034-.185c.717-1.039,1.942-4.607-.969-8.585-2.814-3.845-9.627-3.1-9.695-3.094a.132.132,0,0,1-.147-.116.131.131,0,0,1,.116-.147c.07-.008,7.036-.77,9.94,3.2,3,4.1,1.721,7.811.973,8.894A.133.133,0,0,1-657.9,587.261Z" fill="#1e1e1e"/>
    <path id="Path_893" data-name="Path 893" d="M-687.925,588.158s-2.1,1.137-.5,4.462c0,0-.986-2.62.622-3.746C-687.8,588.874-687.453,588.209-687.925,588.158Z" fill="#1e1e1e"/>
    <path id="Path_894" data-name="Path 894" d="M-681.948,602.1a.359.359,0,0,0,.242-.076l1.539-1.205-1.806-2.247a.357.357,0,0,0-.5-.055.344.344,0,0,0-.06.489l1.37,1.7-.985.771a.344.344,0,0,0-.059.489A.352.352,0,0,0-681.948,602.1Z" fill="#ff806d"/>
  </g>
  <path id="Path_895" data-name="Path 895" d="M-683.749,621.531a13.289,13.289,0,0,1,2.864,6.449,13.223,13.223,0,0,0,6.157-1.889S-680.959,621.453-683.749,621.531Z" transform="translate(749.202 -553)" fill="#62d9ed"/>
  <g id="Group_185" data-name="Group 185" transform="translate(749.202 -553)">
    <g id="Group_184" data-name="Group 184">
      <path id="Path_896" data-name="Path 896" d="M-723.521,670.721s-11.168-2-9.267-8.424,5.58-4.929,5.243-11.063,5.493-3.988,7.485-9.228,3.109-7.543,6.423-6.436-1.19,7.422.841,11.528,3.423,6.445,1.233,10.563,2.055,7.1.282,11.068S-718.587,671.682-723.521,670.721Z" fill="#94bd00"/>
      <path id="Path_897" data-name="Path 897" d="M-724.614,646.252s.131,4.094,2.218,5.426,4.038,1.792,5.083,5.694a11.52,11.52,0,0,1-6.208,13.349l-.617-.13-1.791-18.905Z" fill="#6c8d00"/>
      <path id="Path_898" data-name="Path 898" d="M-716.1,640.683a148.066,148.066,0,0,0-5.074,20.091A64.259,64.259,0,0,1-716.1,640.683Z" fill="#6c8d00"/>
      <path id="Path_899" data-name="Path 899" d="M-721.772,657.063s5.756-1.412,8.8-3.877A13.649,13.649,0,0,1-721.772,657.063Z" fill="#6c8d00"/>
      <path id="Path_900" data-name="Path 900" d="M-728.589,672.1s-8.5,1.966-12.418-2.414-8.144-2.622-8.194-8.259c-.057-6.267,3.948-6.386,2.907-10.346s-2.418-5.79,1.268-9.8-1.751-10.608,3.143-11.167c5.179-.591,3.35,4.517,8.673,6.162s6.079,1.614,8.043,5.366-1.94,8.441,3.972,11.351C-715.246,655.923-715.595,669.559-728.589,672.1Z" fill="#94bd00"/>
      <path id="Path_901" data-name="Path 901" d="M-731.235,671.746s1.987-17.856-6.473-32.1C-737.708,639.645-730.862,652.514-731.235,671.746Z" fill="#6c8d00"/>
      <path id="Path_902" data-name="Path 902" d="M-741.682,658.15s2.477,3.366,10.033,3.911C-731.649,662.061-738.829,663.078-741.682,658.15Z" fill="#6c8d00"/>
      <path id="Path_903" data-name="Path 903" d="M-729.119,641.645a15.407,15.407,0,0,1-4.309,7.969A8.777,8.777,0,0,0-729.119,641.645Z" fill="#6c8d00"/>
    </g>
    <rect id="Rectangle_53" data-name="Rectangle 53" width="24.822" height="6.001" transform="translate(-739.852 670.591)" fill="#e75f35"/>
    <path id="Path_904" data-name="Path 904" d="M-716.979,692.8h-21.1l-.8-16.2h22.695Z" fill="#e75f35"/>
    <path id="Path_905" data-name="Path 905" d="M-716.181,676.592h-22.695l.047.958Z" fill="#d84329"/>
    <path id="Path_906" data-name="Path 906" d="M-736.084,676.884s.621,9.264.842,11.037,4.784,4.168,18.372,2.66l-.109,2.216h-21.1l-.751-15.247Z" fill="#d84329"/>
    <path id="Path_907" data-name="Path 907" d="M-738.189,670.591l.133,3s-.067,1.966,2.46,2.008,20.567.663,20.567.663v.329h-24.822v-6Z" fill="#d84329"/>
    <rect id="Rectangle_54" data-name="Rectangle 54" width="27.6" height="0.827" transform="translate(-741.27 692.797)" fill="#3d5169"/>
    <rect id="Rectangle_55" data-name="Rectangle 55" width="26.298" height="0.873" transform="translate(-742.294 719.696) rotate(-83.382)" fill="#3d5169"/>
    <rect id="Rectangle_56" data-name="Rectangle 56" width="27.339" height="0.873" transform="translate(-732.073 720.493) rotate(-87.146)" fill="#3d5169"/>
    <rect id="Rectangle_57" data-name="Rectangle 57" width="0.873" height="25.865" transform="matrix(0.987, -0.16, 0.16, 0.987, -716.228, 693.28)" fill="#3d5169"/>
    <path id="Path_908" data-name="Path 908" d="M-741.047,715.029l-.446-.75,10.408-6.137,17.457-1.714.085.869L-730.9,709Z" fill="#3d5169"/>
  </g>
  <path id="Path_909" data-name="Path 909" d="M-682.229,613.876s-1.418,3.97-2.723,6.693a11.163,11.163,0,0,1,4.558,6.673,17.981,17.981,0,0,0,4.367-1.418c1.248-.794,3.914-1.361,5.1-.737a18.015,18.015,0,0,0-5.728-5.312C-680.28,617.733-681.6,615.464-682.229,613.876Z" transform="translate(749.202 -553)" fill="#7ee8ff"/>
  <g id="Group_195" data-name="Group 195" transform="translate(749.202 -553)">
    <path id="Path_910" data-name="Path 910" d="M-581.276,619.912h-3.054v-1.733a6.947,6.947,0,0,1-2.138-.876l-1.219,1.219-2.16-2.16,1.186-1.187a6.944,6.944,0,0,1-.937-2.17h-1.64v-3.054h1.582a6.916,6.916,0,0,1,.9-2.266l-1.091-1.091,2.16-2.159,1.057,1.057a6.9,6.9,0,0,1,2.3-.972v-1.476h3.054v1.476a6.891,6.891,0,0,1,2.3.972l1.058-1.057,2.16,2.159-1.09,1.091a6.915,6.915,0,0,1,.9,2.266h1.581v3.054h-1.639a6.912,6.912,0,0,1-.938,2.17l1.187,1.187-2.16,2.16-1.218-1.219a6.927,6.927,0,0,1-2.138.876Zm-2.789-.266h2.523v-1.681l.106-.022a6.7,6.7,0,0,0,2.245-.921l.09-.057,1.181,1.181,1.785-1.784-1.154-1.154.061-.091a6.638,6.638,0,0,0,.985-2.274l.024-.1h1.584v-2.523h-1.535l-.02-.108a6.65,6.65,0,0,0-.941-2.371l-.057-.091,1.053-1.053-1.785-1.784-1.024,1.024-.092-.061a6.667,6.667,0,0,0-2.4-1.017l-.106-.021v-1.426h-2.523v1.426l-.1.021a6.691,6.691,0,0,0-2.4,1.017l-.091.061-1.024-1.024-1.784,1.784,1.053,1.053-.057.091a6.632,6.632,0,0,0-.941,2.371l-.021.108h-1.535v2.523h1.585l.024.1a6.642,6.642,0,0,0,.983,2.274l.061.091-1.152,1.154,1.784,1.784,1.182-1.181.09.057a6.689,6.689,0,0,0,2.245.921l.1.022Zm1.262-3.975a4.327,4.327,0,0,1-4.322-4.321,4.327,4.327,0,0,1,4.322-4.322,4.327,4.327,0,0,1,4.321,4.322A4.327,4.327,0,0,1-582.8,615.671Zm0-8.377a4.06,4.06,0,0,0-4.056,4.056,4.061,4.061,0,0,0,4.056,4.056,4.061,4.061,0,0,0,4.056-4.056A4.061,4.061,0,0,0-582.8,607.294Z" fill="#fff"/>
    <path id="Rectangle_58" data-name="Rectangle 58" d="M.973,0H68.79a.961.961,0,0,1,.961.961V46.083a.845.845,0,0,1-.845.845H.845A.845.845,0,0,1,0,46.083V.973A.973.973,0,0,1,.973,0Z" transform="translate(-649.457 567)" fill="#faf4f3"/>
    <path id="Path_911" data-name="Path 911" d="M-583.724,563.466h-61.715a4.019,4.019,0,0,0-4.018,4.019v1.148h69.751v-1.148A4.019,4.019,0,0,0-583.724,563.466Z" fill="#1e1e1e"/>
    <g id="Group_186" data-name="Group 186">
      <rect id="Rectangle_59" data-name="Rectangle 59" width="0.574" height="3.875" transform="translate(-583.209 564.584) rotate(45.002)" fill="#f1f1f1"/>
      <rect id="Rectangle_60" data-name="Rectangle 60" width="0.574" height="3.875" transform="translate(-582.803 567.324) rotate(134.998)" fill="#f1f1f1"/>
    </g>
    <g id="Group_191" data-name="Group 191">
      <g id="Group_187" data-name="Group 187">
        <path id="Path_912" data-name="Path 912" d="M-643.315,571.906c0,1.187-.453,1.842-1.251,1.842-.7,0-1.179-.639-1.19-1.793,0-1.171.521-1.815,1.251-1.815C-643.746,570.14-643.315,570.795-643.315,571.906Zm-1.953.054c0,.907.287,1.423.73,1.423.5,0,.736-.564.736-1.455,0-.859-.227-1.423-.73-1.423C-644.959,570.505-645.268,571.01-645.268,571.96Z" fill="#7ee8ff"/>
        <path id="Path_913" data-name="Path 913" d="M-641.807,570.639h-.011l-.626.328-.094-.36.786-.408h.415v3.49h-.47Z" fill="#7ee8ff"/>
        <path id="Path_914" data-name="Path 914" d="M-637.632,571.906c0,1.187-.454,1.842-1.251,1.842-.7,0-1.179-.639-1.19-1.793,0-1.171.52-1.815,1.251-1.815C-638.064,570.14-637.632,570.795-637.632,571.906Zm-1.954.054c0,.907.288,1.423.731,1.423.5,0,.736-.564.736-1.455,0-.859-.227-1.423-.731-1.423C-639.276,570.505-639.586,571.01-639.586,571.96Z" fill="#7ee8ff"/>
        <path id="Path_915" data-name="Path 915" d="M-636.125,570.639h-.011l-.626.328-.094-.36.786-.408h.416v3.49h-.471Z" fill="#7ee8ff"/>
        <path id="Path_916" data-name="Path 916" d="M-633.284,570.639h-.011l-.625.328-.094-.36.786-.408h.415v3.49h-.471Z" fill="#7ee8ff"/>
        <path id="Path_917" data-name="Path 917" d="M-630.442,570.639h-.011l-.626.328-.094-.36.786-.408h.415v3.49h-.47Z" fill="#7ee8ff"/>
        <path id="Path_918" data-name="Path 918" d="M-626.267,571.906c0,1.187-.454,1.842-1.251,1.842-.7,0-1.179-.639-1.19-1.793,0-1.171.52-1.815,1.251-1.815C-626.7,570.14-626.267,570.795-626.267,571.906Zm-1.954.054c0,.907.288,1.423.731,1.423.5,0,.736-.564.736-1.455,0-.859-.227-1.423-.731-1.423C-627.911,570.505-628.221,571.01-628.221,571.96Z" fill="#7ee8ff"/>
        <path id="Path_919" data-name="Path 919" d="M-623.426,571.906c0,1.187-.454,1.842-1.251,1.842-.7,0-1.179-.639-1.19-1.793,0-1.171.52-1.815,1.251-1.815C-623.858,570.14-623.426,570.795-623.426,571.906Zm-1.954.054c0,.907.288,1.423.731,1.423.5,0,.736-.564.736-1.455,0-.859-.227-1.423-.731-1.423C-625.07,570.505-625.38,571.01-625.38,571.96Z" fill="#7ee8ff"/>
        <path id="Path_920" data-name="Path 920" d="M-620.585,571.906c0,1.187-.454,1.842-1.251,1.842-.7,0-1.179-.639-1.19-1.793,0-1.171.52-1.815,1.251-1.815C-621.017,570.14-620.585,570.795-620.585,571.906Zm-1.954.054c0,.907.288,1.423.731,1.423.5,0,.736-.564.736-1.455,0-.859-.227-1.423-.73-1.423C-622.229,570.505-622.539,571.01-622.539,571.96Z" fill="#7ee8ff"/>
        <path id="Path_921" data-name="Path 921" d="M-617.744,571.906c0,1.187-.453,1.842-1.251,1.842-.7,0-1.179-.639-1.19-1.793,0-1.171.521-1.815,1.251-1.815C-618.175,570.14-617.744,570.795-617.744,571.906Zm-1.953.054c0,.907.287,1.423.73,1.423.5,0,.736-.564.736-1.455,0-.859-.226-1.423-.73-1.423C-619.388,570.505-619.7,571.01-619.7,571.96Z" fill="#7ee8ff"/>
        <path id="Path_922" data-name="Path 922" d="M-616.236,570.639h-.011l-.626.328-.094-.36.786-.408h.415v3.49h-.47Z" fill="#7ee8ff"/>
        <path id="Path_923" data-name="Path 923" d="M-613.4,570.639h-.011l-.626.328-.094-.36.786-.408h.416v3.49h-.471Z" fill="#7ee8ff"/>
        <path id="Path_924" data-name="Path 924" d="M-610.554,570.639h-.011l-.625.328-.094-.36.785-.408h.416v3.49h-.471Z" fill="#7ee8ff"/>
      </g>
      <path id="Path_925" data-name="Path 925" d="M-606.037,571.906c0,1.187-.454,1.842-1.251,1.842-.7,0-1.179-.639-1.19-1.793,0-1.171.52-1.815,1.251-1.815C-606.469,570.14-606.037,570.795-606.037,571.906Zm-1.954.054c0,.907.288,1.423.731,1.423.5,0,.736-.564.736-1.455,0-.859-.227-1.423-.731-1.423C-607.681,570.505-607.991,571.01-607.991,571.96Z" fill="#7ee8ff"/>
      <path id="Path_926" data-name="Path 926" d="M-604.53,570.639h-.011l-.625.328-.095-.36.786-.408h.416v3.49h-.471Z" fill="#7ee8ff"/>
      <path id="Path_927" data-name="Path 927" d="M-600.355,571.906c0,1.187-.453,1.842-1.251,1.842-.7,0-1.179-.639-1.19-1.793,0-1.171.521-1.815,1.251-1.815C-600.786,570.14-600.355,570.795-600.355,571.906Zm-1.954.054c0,.907.288,1.423.731,1.423.5,0,.736-.564.736-1.455,0-.859-.227-1.423-.73-1.423C-602,570.505-602.309,571.01-602.309,571.96Z" fill="#7ee8ff"/>
      <path id="Path_928" data-name="Path 928" d="M-598.847,570.639h-.011l-.626.328-.094-.36.786-.408h.415v3.49h-.47Z" fill="#7ee8ff"/>
      <path id="Path_929" data-name="Path 929" d="M-596.006,570.639h-.011l-.626.328-.094-.36.786-.408h.415v3.49h-.47Z" fill="#7ee8ff"/>
      <path id="Path_930" data-name="Path 930" d="M-593.165,570.639h-.011l-.626.328-.094-.36.786-.408h.416v3.49h-.471Z" fill="#7ee8ff"/>
      <path id="Path_931" data-name="Path 931" d="M-588.99,571.906c0,1.187-.454,1.842-1.251,1.842-.7,0-1.179-.639-1.19-1.793,0-1.171.52-1.815,1.251-1.815C-589.421,570.14-588.99,570.795-588.99,571.906Zm-1.954.054c0,.907.288,1.423.731,1.423.5,0,.736-.564.736-1.455,0-.859-.227-1.423-.73-1.423C-590.634,570.505-590.944,571.01-590.944,571.96Z" fill="#7ee8ff"/>
      <path id="Path_932" data-name="Path 932" d="M-586.148,571.906c0,1.187-.454,1.842-1.251,1.842-.7,0-1.18-.639-1.191-1.793,0-1.171.521-1.815,1.251-1.815C-586.58,570.14-586.148,570.795-586.148,571.906Zm-1.954.054c0,.907.287,1.423.73,1.423.5,0,.737-.564.737-1.455,0-.859-.227-1.423-.731-1.423C-587.793,570.505-588.1,571.01-588.1,571.96Z" fill="#7ee8ff"/>
      <path id="Path_933" data-name="Path 933" d="M-583.307,571.906c0,1.187-.454,1.842-1.251,1.842-.7,0-1.179-.639-1.19-1.793,0-1.171.52-1.815,1.251-1.815C-583.739,570.14-583.307,570.795-583.307,571.906Zm-1.954.054c0,.907.288,1.423.73,1.423.5,0,.737-.564.737-1.455,0-.859-.227-1.423-.731-1.423C-584.951,570.505-585.261,571.01-585.261,571.96Z" fill="#7ee8ff"/>
      <g id="Group_188" data-name="Group 188">
        <path id="Path_934" data-name="Path 934" d="M-642.973,604.272c0,1.186-.454,1.841-1.251,1.841-.7,0-1.179-.639-1.19-1.793,0-1.17.52-1.815,1.251-1.815C-643.405,602.505-642.973,603.16-642.973,604.272Zm-1.954.053c0,.908.288,1.423.731,1.423.5,0,.736-.564.736-1.455,0-.859-.227-1.423-.731-1.423C-644.617,602.87-644.927,603.375-644.927,604.325Z" fill="#7ee8ff"/>
        <path id="Path_935" data-name="Path 935" d="M-641.466,603h-.011l-.625.328-.1-.359.786-.409h.416v3.49h-.471Z" fill="#7ee8ff"/>
        <path id="Path_936" data-name="Path 936" d="M-637.291,604.272c0,1.186-.453,1.841-1.251,1.841-.7,0-1.179-.639-1.19-1.793,0-1.17.521-1.815,1.251-1.815C-637.722,602.505-637.291,603.16-637.291,604.272Zm-1.954.053c0,.908.288,1.423.731,1.423.5,0,.736-.564.736-1.455,0-.859-.227-1.423-.73-1.423C-638.935,602.87-639.245,603.375-639.245,604.325Z" fill="#7ee8ff"/>
        <path id="Path_937" data-name="Path 937" d="M-635.783,603h-.011l-.626.328-.094-.359.786-.409h.415v3.49h-.47Z" fill="#7ee8ff"/>
        <path id="Path_938" data-name="Path 938" d="M-632.942,603h-.011l-.626.328-.094-.359.786-.409h.416v3.49h-.471Z" fill="#7ee8ff"/>
        <path id="Path_939" data-name="Path 939" d="M-630.1,603h-.011l-.625.328-.095-.359.786-.409h.416v3.49h-.471Z" fill="#7ee8ff"/>
        <path id="Path_940" data-name="Path 940" d="M-625.926,604.272c0,1.186-.454,1.841-1.251,1.841-.7,0-1.179-.639-1.19-1.793,0-1.17.521-1.815,1.251-1.815C-626.357,602.505-625.926,603.16-625.926,604.272Zm-1.954.053c0,.908.288,1.423.731,1.423.5,0,.736-.564.736-1.455,0-.859-.227-1.423-.73-1.423C-627.57,602.87-627.88,603.375-627.88,604.325Z" fill="#7ee8ff"/>
        <path id="Path_941" data-name="Path 941" d="M-623.084,604.272c0,1.186-.454,1.841-1.251,1.841-.7,0-1.18-.639-1.191-1.793,0-1.17.521-1.815,1.251-1.815C-623.516,602.505-623.084,603.16-623.084,604.272Zm-1.954.053c0,.908.287,1.423.73,1.423.5,0,.737-.564.737-1.455,0-.859-.227-1.423-.731-1.423C-624.728,602.87-625.038,603.375-625.038,604.325Z" fill="#7ee8ff"/>
        <path id="Path_942" data-name="Path 942" d="M-620.243,604.272c0,1.186-.454,1.841-1.251,1.841-.7,0-1.179-.639-1.19-1.793,0-1.17.52-1.815,1.251-1.815C-620.675,602.505-620.243,603.16-620.243,604.272Zm-1.954.053c0,.908.288,1.423.731,1.423.5,0,.736-.564.736-1.455,0-.859-.227-1.423-.731-1.423C-621.887,602.87-622.2,603.375-622.2,604.325Z" fill="#7ee8ff"/>
        <path id="Path_943" data-name="Path 943" d="M-617.4,604.272c0,1.186-.454,1.841-1.251,1.841-.7,0-1.179-.639-1.19-1.793,0-1.17.52-1.815,1.251-1.815C-617.834,602.505-617.4,603.16-617.4,604.272Zm-1.954.053c0,.908.288,1.423.731,1.423.5,0,.736-.564.736-1.455,0-.859-.227-1.423-.731-1.423C-619.046,602.87-619.356,603.375-619.356,604.325Z" fill="#7ee8ff"/>
        <path id="Path_944" data-name="Path 944" d="M-615.9,603h-.011l-.625.328-.094-.359.786-.409h.415v3.49h-.471Z" fill="#7ee8ff"/>
        <path id="Path_945" data-name="Path 945" d="M-613.053,603h-.011l-.626.328-.094-.359.786-.409h.415v3.49h-.47Z" fill="#7ee8ff"/>
        <path id="Path_946" data-name="Path 946" d="M-610.212,603h-.011l-.626.328-.094-.359.786-.409h.415v3.49h-.47Z" fill="#7ee8ff"/>
      </g>
      <path id="Path_947" data-name="Path 947" d="M-605.7,604.272c0,1.186-.454,1.841-1.252,1.841-.7,0-1.179-.639-1.19-1.793,0-1.17.521-1.815,1.251-1.815C-606.127,602.505-605.7,603.16-605.7,604.272Zm-1.954.053c0,.908.287,1.423.73,1.423.5,0,.736-.564.736-1.455,0-.859-.226-1.423-.73-1.423C-607.34,602.87-607.649,603.375-607.649,604.325Z" fill="#7ee8ff"/>
      <path id="Path_948" data-name="Path 948" d="M-604.188,603h-.011l-.626.328-.094-.359.786-.409h.415v3.49h-.47Z" fill="#7ee8ff"/>
      <path id="Path_949" data-name="Path 949" d="M-600.013,604.272c0,1.186-.454,1.841-1.251,1.841-.7,0-1.179-.639-1.19-1.793,0-1.17.52-1.815,1.251-1.815C-600.445,602.505-600.013,603.16-600.013,604.272Zm-1.954.053c0,.908.288,1.423.731,1.423.5,0,.736-.564.736-1.455,0-.859-.227-1.423-.731-1.423C-601.657,602.87-601.967,603.375-601.967,604.325Z" fill="#7ee8ff"/>
      <path id="Path_950" data-name="Path 950" d="M-598.506,603h-.011l-.625.328-.095-.359.786-.409h.416v3.49h-.471Z" fill="#7ee8ff"/>
      <path id="Path_951" data-name="Path 951" d="M-595.665,603h-.011l-.625.328-.094-.359.786-.409h.415v3.49h-.471Z" fill="#7ee8ff"/>
      <path id="Path_952" data-name="Path 952" d="M-592.823,603h-.011l-.626.328-.094-.359.786-.409h.415v3.49h-.47Z" fill="#7ee8ff"/>
      <path id="Path_953" data-name="Path 953" d="M-588.648,604.272c0,1.186-.454,1.841-1.251,1.841-.7,0-1.179-.639-1.19-1.793,0-1.17.52-1.815,1.251-1.815C-589.08,602.505-588.648,603.16-588.648,604.272Zm-1.954.053c0,.908.288,1.423.731,1.423.5,0,.736-.564.736-1.455,0-.859-.227-1.423-.731-1.423C-590.292,602.87-590.6,603.375-590.6,604.325Z" fill="#7ee8ff"/>
      <path id="Path_954" data-name="Path 954" d="M-585.807,604.272c0,1.186-.454,1.841-1.251,1.841-.7,0-1.179-.639-1.19-1.793,0-1.17.52-1.815,1.251-1.815C-586.239,602.505-585.807,603.16-585.807,604.272Zm-1.954.053c0,.908.288,1.423.731,1.423.5,0,.736-.564.736-1.455,0-.859-.227-1.423-.731-1.423C-587.451,602.87-587.761,603.375-587.761,604.325Z" fill="#7ee8ff"/>
      <path id="Path_955" data-name="Path 955" d="M-582.966,604.272c0,1.186-.454,1.841-1.251,1.841-.7,0-1.179-.639-1.19-1.793,0-1.17.521-1.815,1.251-1.815C-583.4,602.505-582.966,603.16-582.966,604.272Zm-1.954.053c0,.908.288,1.423.731,1.423.5,0,.736-.564.736-1.455,0-.859-.227-1.423-.73-1.423C-584.61,602.87-584.92,603.375-584.92,604.325Z" fill="#7ee8ff"/>
      <g id="Group_189" data-name="Group 189">
        <path id="Path_956" data-name="Path 956" d="M-643.387,578.735c0,1.186-.454,1.841-1.251,1.841-.7,0-1.179-.638-1.19-1.793,0-1.17.52-1.815,1.251-1.815C-643.819,576.968-643.387,577.623-643.387,578.735Zm-1.954.053c0,.908.288,1.423.73,1.423.5,0,.737-.564.737-1.455,0-.859-.227-1.423-.731-1.423C-645.031,577.333-645.341,577.838-645.341,578.788Z" fill="#7ee8ff"/>
        <path id="Path_957" data-name="Path 957" d="M-641.88,577.468h-.011l-.626.327-.094-.359.786-.409h.416v3.49h-.471Z" fill="#7ee8ff"/>
        <path id="Path_958" data-name="Path 958" d="M-637.705,578.735c0,1.186-.454,1.841-1.251,1.841-.7,0-1.179-.638-1.19-1.793,0-1.17.52-1.815,1.251-1.815C-638.137,576.968-637.705,577.623-637.705,578.735Zm-1.954.053c0,.908.288,1.423.731,1.423.5,0,.736-.564.736-1.455,0-.859-.227-1.423-.731-1.423C-639.349,577.333-639.659,577.838-639.659,578.788Z" fill="#7ee8ff"/>
        <path id="Path_959" data-name="Path 959" d="M-636.2,577.468h-.011l-.625.327-.094-.359.786-.409h.415v3.49h-.471Z" fill="#7ee8ff"/>
        <path id="Path_960" data-name="Path 960" d="M-633.356,577.468h-.011l-.626.327-.094-.359.786-.409h.415v3.49h-.47Z" fill="#7ee8ff"/>
        <path id="Path_961" data-name="Path 961" d="M-630.515,577.468h-.011l-.626.327-.094-.359.786-.409h.415v3.49h-.47Z" fill="#7ee8ff"/>
        <path id="Path_962" data-name="Path 962" d="M-626.34,578.735c0,1.186-.454,1.841-1.251,1.841-.7,0-1.179-.638-1.19-1.793,0-1.17.52-1.815,1.251-1.815C-626.772,576.968-626.34,577.623-626.34,578.735Zm-1.954.053c0,.908.288,1.423.731,1.423.5,0,.736-.564.736-1.455,0-.859-.227-1.423-.731-1.423C-627.984,577.333-628.294,577.838-628.294,578.788Z" fill="#7ee8ff"/>
        <path id="Path_963" data-name="Path 963" d="M-623.5,578.735c0,1.186-.454,1.841-1.251,1.841-.7,0-1.179-.638-1.19-1.793,0-1.17.52-1.815,1.251-1.815C-623.931,576.968-623.5,577.623-623.5,578.735Zm-1.954.053c0,.908.288,1.423.731,1.423.5,0,.736-.564.736-1.455,0-.859-.227-1.423-.73-1.423C-625.143,577.333-625.453,577.838-625.453,578.788Z" fill="#7ee8ff"/>
        <path id="Path_964" data-name="Path 964" d="M-620.657,578.735c0,1.186-.454,1.841-1.252,1.841-.7,0-1.179-.638-1.19-1.793,0-1.17.521-1.815,1.251-1.815C-621.089,576.968-620.657,577.623-620.657,578.735Zm-1.954.053c0,.908.287,1.423.73,1.423.5,0,.737-.564.737-1.455,0-.859-.227-1.423-.731-1.423C-622.3,577.333-622.611,577.838-622.611,578.788Z" fill="#7ee8ff"/>
        <path id="Path_965" data-name="Path 965" d="M-617.816,578.735c0,1.186-.454,1.841-1.251,1.841-.7,0-1.179-.638-1.19-1.793,0-1.17.52-1.815,1.251-1.815C-618.248,576.968-617.816,577.623-617.816,578.735Zm-1.954.053c0,.908.288,1.423.73,1.423.5,0,.737-.564.737-1.455,0-.859-.227-1.423-.731-1.423C-619.46,577.333-619.77,577.838-619.77,578.788Z" fill="#7ee8ff"/>
        <path id="Path_966" data-name="Path 966" d="M-616.309,577.468h-.011l-.626.327-.094-.359.786-.409h.416v3.49h-.471Z" fill="#7ee8ff"/>
        <path id="Path_967" data-name="Path 967" d="M-613.468,577.468h-.011l-.625.327-.095-.359.786-.409H-613v3.49h-.471Z" fill="#7ee8ff"/>
        <path id="Path_968" data-name="Path 968" d="M-610.627,577.468h-.011l-.625.327-.094-.359.786-.409h.415v3.49h-.471Z" fill="#7ee8ff"/>
      </g>
      <path id="Path_969" data-name="Path 969" d="M-606.11,578.735c0,1.186-.454,1.841-1.251,1.841-.7,0-1.179-.638-1.19-1.793,0-1.17.52-1.815,1.251-1.815C-606.542,576.968-606.11,577.623-606.11,578.735Zm-1.954.053c0,.908.288,1.423.731,1.423.5,0,.736-.564.736-1.455,0-.859-.227-1.423-.73-1.423C-607.754,577.333-608.064,577.838-608.064,578.788Z" fill="#7ee8ff"/>
      <path id="Path_970" data-name="Path 970" d="M-604.6,577.468h-.011l-.625.327-.094-.359.786-.409h.415v3.49h-.471Z" fill="#7ee8ff"/>
      <path id="Path_971" data-name="Path 971" d="M-600.427,578.735c0,1.186-.454,1.841-1.251,1.841-.7,0-1.179-.638-1.191-1.793,0-1.17.521-1.815,1.252-1.815C-600.859,576.968-600.427,577.623-600.427,578.735Zm-1.954.053c0,.908.288,1.423.73,1.423.5,0,.737-.564.737-1.455,0-.859-.227-1.423-.731-1.423C-602.071,577.333-602.381,577.838-602.381,578.788Z" fill="#7ee8ff"/>
      <path id="Path_972" data-name="Path 972" d="M-598.92,577.468h-.011l-.626.327-.094-.359.786-.409h.416v3.49h-.471Z" fill="#7ee8ff"/>
      <path id="Path_973" data-name="Path 973" d="M-596.079,577.468h-.011l-.626.327-.093-.359.785-.409h.416v3.49h-.471Z" fill="#7ee8ff"/>
      <path id="Path_974" data-name="Path 974" d="M-593.238,577.468h-.011l-.625.327-.094-.359.786-.409h.415v3.49h-.471Z" fill="#7ee8ff"/>
      <path id="Path_975" data-name="Path 975" d="M-589.062,578.735c0,1.186-.454,1.841-1.251,1.841-.7,0-1.18-.638-1.191-1.793,0-1.17.521-1.815,1.251-1.815C-589.494,576.968-589.062,577.623-589.062,578.735Zm-1.954.053c0,.908.287,1.423.73,1.423.5,0,.737-.564.737-1.455,0-.859-.227-1.423-.731-1.423C-590.706,577.333-591.016,577.838-591.016,578.788Z" fill="#7ee8ff"/>
      <path id="Path_976" data-name="Path 976" d="M-586.221,578.735c0,1.186-.454,1.841-1.251,1.841-.7,0-1.179-.638-1.19-1.793,0-1.17.52-1.815,1.251-1.815C-586.653,576.968-586.221,577.623-586.221,578.735Zm-1.954.053c0,.908.288,1.423.731,1.423.5,0,.736-.564.736-1.455,0-.859-.227-1.423-.731-1.423C-587.865,577.333-588.175,577.838-588.175,578.788Z" fill="#7ee8ff"/>
      <path id="Path_977" data-name="Path 977" d="M-583.38,578.735c0,1.186-.454,1.841-1.251,1.841-.7,0-1.179-.638-1.19-1.793,0-1.17.52-1.815,1.251-1.815C-583.812,576.968-583.38,577.623-583.38,578.735Zm-1.954.053c0,.908.288,1.423.731,1.423.5,0,.736-.564.736-1.455,0-.859-.227-1.423-.731-1.423C-585.024,577.333-585.334,577.838-585.334,578.788Z" fill="#7ee8ff"/>
      <g id="Group_190" data-name="Group 190">
        <path id="Path_978" data-name="Path 978" d="M-643.118,598.349c0,1.186-.454,1.841-1.251,1.841-.7,0-1.179-.639-1.19-1.793,0-1.171.52-1.815,1.251-1.815C-643.55,596.582-643.118,597.237-643.118,598.349Zm-1.954.053c0,.907.288,1.423.73,1.423.5,0,.737-.564.737-1.455,0-.859-.227-1.423-.731-1.423C-644.762,596.947-645.072,597.452-645.072,598.4Z" fill="#7ee8ff"/>
        <path id="Path_979" data-name="Path 979" d="M-641.611,597.081h-.011l-.626.328-.094-.36.786-.408h.416v3.49h-.471Z" fill="#7ee8ff"/>
        <path id="Path_980" data-name="Path 980" d="M-637.436,598.349c0,1.186-.454,1.841-1.251,1.841-.7,0-1.179-.639-1.19-1.793,0-1.171.52-1.815,1.251-1.815C-637.868,596.582-637.436,597.237-637.436,598.349Zm-1.954.053c0,.907.288,1.423.731,1.423.5,0,.736-.564.736-1.455,0-.859-.227-1.423-.73-1.423C-639.08,596.947-639.39,597.452-639.39,598.4Z" fill="#7ee8ff"/>
        <path id="Path_981" data-name="Path 981" d="M-635.929,597.081h-.011l-.625.328-.094-.36.786-.408h.415v3.49h-.471Z" fill="#7ee8ff"/>
        <path id="Path_982" data-name="Path 982" d="M-633.087,597.081h-.011l-.626.328-.094-.36.786-.408h.415v3.49h-.47Z" fill="#7ee8ff"/>
        <path id="Path_983" data-name="Path 983" d="M-630.246,597.081h-.011l-.626.328-.094-.36.786-.408h.415v3.49h-.47Z" fill="#7ee8ff"/>
        <path id="Path_984" data-name="Path 984" d="M-626.071,598.349c0,1.186-.454,1.841-1.251,1.841-.7,0-1.179-.639-1.19-1.793,0-1.171.52-1.815,1.251-1.815C-626.5,596.582-626.071,597.237-626.071,598.349Zm-1.954.053c0,.907.288,1.423.731,1.423.5,0,.736-.564.736-1.455,0-.859-.227-1.423-.731-1.423C-627.715,596.947-628.025,597.452-628.025,598.4Z" fill="#7ee8ff"/>
        <path id="Path_985" data-name="Path 985" d="M-623.23,598.349c0,1.186-.454,1.841-1.251,1.841-.7,0-1.179-.639-1.19-1.793,0-1.171.521-1.815,1.251-1.815C-623.661,596.582-623.23,597.237-623.23,598.349Zm-1.954.053c0,.907.288,1.423.731,1.423.5,0,.736-.564.736-1.455,0-.859-.227-1.423-.73-1.423C-624.874,596.947-625.184,597.452-625.184,598.4Z" fill="#7ee8ff"/>
        <path id="Path_986" data-name="Path 986" d="M-620.388,598.349c0,1.186-.454,1.841-1.251,1.841-.7,0-1.18-.639-1.191-1.793,0-1.171.521-1.815,1.251-1.815C-620.82,596.582-620.388,597.237-620.388,598.349Zm-1.954.053c0,.907.287,1.423.73,1.423.5,0,.737-.564.737-1.455,0-.859-.227-1.423-.731-1.423C-622.033,596.947-622.342,597.452-622.342,598.4Z" fill="#7ee8ff"/>
        <path id="Path_987" data-name="Path 987" d="M-617.547,598.349c0,1.186-.454,1.841-1.251,1.841-.7,0-1.179-.639-1.19-1.793,0-1.171.52-1.815,1.251-1.815C-617.979,596.582-617.547,597.237-617.547,598.349Zm-1.954.053c0,.907.288,1.423.73,1.423.5,0,.737-.564.737-1.455,0-.859-.227-1.423-.731-1.423C-619.191,596.947-619.5,597.452-619.5,598.4Z" fill="#7ee8ff"/>
        <path id="Path_988" data-name="Path 988" d="M-616.04,597.081h-.011l-.626.328-.094-.36.786-.408h.416v3.49h-.471Z" fill="#7ee8ff"/>
        <path id="Path_989" data-name="Path 989" d="M-613.2,597.081h-.011l-.625.328-.095-.36.786-.408h.416v3.49h-.471Z" fill="#7ee8ff"/>
        <path id="Path_990" data-name="Path 990" d="M-610.358,597.081h-.011l-.625.328-.094-.36.786-.408h.415v3.49h-.471Z" fill="#7ee8ff"/>
      </g>
      <path id="Path_991" data-name="Path 991" d="M-605.841,598.349c0,1.186-.454,1.841-1.251,1.841-.7,0-1.179-.639-1.19-1.793,0-1.171.52-1.815,1.251-1.815C-606.273,596.582-605.841,597.237-605.841,598.349Zm-1.954.053c0,.907.288,1.423.731,1.423.5,0,.736-.564.736-1.455,0-.859-.227-1.423-.73-1.423C-607.485,596.947-607.795,597.452-607.795,598.4Z" fill="#7ee8ff"/>
      <path id="Path_992" data-name="Path 992" d="M-604.333,597.081h-.012l-.625.328-.094-.36.786-.408h.415v3.49h-.47Z" fill="#7ee8ff"/>
      <path id="Path_993" data-name="Path 993" d="M-600.158,598.349c0,1.186-.454,1.841-1.251,1.841-.7,0-1.179-.639-1.191-1.793,0-1.171.521-1.815,1.252-1.815C-600.59,596.582-600.158,597.237-600.158,598.349Zm-1.954.053c0,.907.288,1.423.73,1.423.5,0,.737-.564.737-1.455,0-.859-.227-1.423-.731-1.423C-601.8,596.947-602.112,597.452-602.112,598.4Z" fill="#7ee8ff"/>
      <path id="Path_994" data-name="Path 994" d="M-598.651,597.081h-.011l-.626.328-.094-.36.786-.408h.416v3.49h-.471Z" fill="#7ee8ff"/>
      <path id="Path_995" data-name="Path 995" d="M-595.81,597.081h-.011l-.625.328-.094-.36.785-.408h.416v3.49h-.471Z" fill="#7ee8ff"/>
      <path id="Path_996" data-name="Path 996" d="M-592.969,597.081h-.011l-.625.328-.094-.36.786-.408h.415v3.49h-.471Z" fill="#7ee8ff"/>
      <path id="Path_997" data-name="Path 997" d="M-588.793,598.349c0,1.186-.454,1.841-1.251,1.841-.7,0-1.18-.639-1.191-1.793,0-1.171.521-1.815,1.251-1.815C-589.225,596.582-588.793,597.237-588.793,598.349Zm-1.954.053c0,.907.287,1.423.73,1.423.5,0,.737-.564.737-1.455,0-.859-.227-1.423-.731-1.423C-590.437,596.947-590.747,597.452-590.747,598.4Z" fill="#7ee8ff"/>
      <path id="Path_998" data-name="Path 998" d="M-585.952,598.349c0,1.186-.454,1.841-1.251,1.841-.7,0-1.179-.639-1.19-1.793,0-1.171.52-1.815,1.251-1.815C-586.384,596.582-585.952,597.237-585.952,598.349Zm-1.954.053c0,.907.288,1.423.731,1.423.5,0,.736-.564.736-1.455,0-.859-.227-1.423-.731-1.423C-587.6,596.947-587.906,597.452-587.906,598.4Z" fill="#7ee8ff"/>
      <path id="Path_999" data-name="Path 999" d="M-583.111,598.349c0,1.186-.454,1.841-1.251,1.841-.7,0-1.179-.639-1.19-1.793,0-1.171.52-1.815,1.251-1.815C-583.543,596.582-583.111,597.237-583.111,598.349Zm-1.954.053c0,.907.288,1.423.731,1.423.5,0,.736-.564.736-1.455,0-.859-.227-1.423-.731-1.423C-584.755,596.947-585.065,597.452-585.065,598.4Z" fill="#7ee8ff"/>
      <path id="Path_1000" data-name="Path 1000" d="M-644.677,590.685h-.011l-.633.332-.1-.365.8-.412h.42v3.533h-.477Z" fill="#7ee8ff"/>
      <path id="Path_1001" data-name="Path 1001" d="M-640.448,591.968c0,1.2-.46,1.866-1.267,1.866-.712,0-1.194-.648-1.2-1.816,0-1.186.527-1.838,1.267-1.838C-640.885,590.18-640.448,590.843-640.448,591.968Zm-1.979.055c0,.918.292,1.44.74,1.44.505,0,.746-.571.746-1.473,0-.87-.23-1.44-.74-1.44C-642.113,590.55-642.427,591.061-642.427,592.023Z" fill="#7ee8ff"/>
      <path id="Path_1002" data-name="Path 1002" d="M-637.571,591.968c0,1.2-.459,1.866-1.266,1.866-.712,0-1.194-.648-1.206-1.816,0-1.186.528-1.838,1.267-1.838C-638.008,590.18-637.571,590.843-637.571,591.968Zm-1.978.055c0,.918.291,1.44.74,1.44.5,0,.745-.571.745-1.473,0-.87-.23-1.44-.74-1.44C-639.235,590.55-639.549,591.061-639.549,592.023Z" fill="#7ee8ff"/>
      <path id="Path_1003" data-name="Path 1003" d="M-636.044,590.685h-.011l-.634.332-.095-.365.8-.412h.42v3.533h-.476Z" fill="#7ee8ff"/>
      <path id="Path_1004" data-name="Path 1004" d="M-633.167,590.685h-.011l-.633.332-.1-.365.8-.412h.421v3.533h-.477Z" fill="#7ee8ff"/>
      <path id="Path_1005" data-name="Path 1005" d="M-628.938,591.968c0,1.2-.46,1.866-1.267,1.866-.712,0-1.194-.648-1.2-1.816,0-1.186.527-1.838,1.267-1.838C-629.375,590.18-628.938,590.843-628.938,591.968Zm-1.979.055c0,.918.292,1.44.74,1.44.5,0,.745-.571.745-1.473,0-.87-.229-1.44-.739-1.44C-630.6,590.55-630.917,591.061-630.917,592.023Z" fill="#7ee8ff"/>
      <path id="Path_1006" data-name="Path 1006" d="M-626.061,591.968c0,1.2-.459,1.866-1.266,1.866-.712,0-1.194-.648-1.206-1.816,0-1.186.527-1.838,1.267-1.838C-626.5,590.18-626.061,590.843-626.061,591.968Zm-1.978.055c0,.918.291,1.44.74,1.44.5,0,.745-.571.745-1.473,0-.87-.23-1.44-.74-1.44C-627.725,590.55-628.039,591.061-628.039,592.023Z" fill="#7ee8ff"/>
      <path id="Path_1007" data-name="Path 1007" d="M-623.183,591.968c0,1.2-.46,1.866-1.267,1.866-.712,0-1.194-.648-1.205-1.816,0-1.186.527-1.838,1.267-1.838C-623.62,590.18-623.183,590.843-623.183,591.968Zm-1.979.055c0,.918.292,1.44.74,1.44.5,0,.745-.571.745-1.473,0-.87-.229-1.44-.739-1.44C-624.848,590.55-625.162,591.061-625.162,592.023Z" fill="#7ee8ff"/>
      <path id="Path_1008" data-name="Path 1008" d="M-621.657,590.685h-.011l-.633.332-.1-.365.8-.412h.421v3.533h-.477Z" fill="#7ee8ff"/>
      <path id="Path_1009" data-name="Path 1009" d="M-617.428,591.968c0,1.2-.46,1.866-1.267,1.866-.712,0-1.194-.648-1.205-1.816,0-1.186.527-1.838,1.267-1.838C-617.865,590.18-617.428,590.843-617.428,591.968Zm-1.979.055c0,.918.292,1.44.74,1.44.5,0,.745-.571.745-1.473,0-.87-.229-1.44-.74-1.44C-619.093,590.55-619.407,591.061-619.407,592.023Z" fill="#7ee8ff"/>
      <path id="Path_1010" data-name="Path 1010" d="M-615.9,590.685h-.011l-.633.332-.1-.365.8-.412h.421v3.533h-.477Z" fill="#7ee8ff"/>
      <path id="Path_1011" data-name="Path 1011" d="M-611.673,591.968c0,1.2-.46,1.866-1.267,1.866-.712,0-1.194-.648-1.205-1.816,0-1.186.527-1.838,1.267-1.838C-612.111,590.18-611.673,590.843-611.673,591.968Zm-1.979.055c0,.918.292,1.44.74,1.44.5,0,.745-.571.745-1.473,0-.87-.229-1.44-.74-1.44C-613.338,590.55-613.652,591.061-613.652,592.023Z" fill="#7ee8ff"/>
      <path id="Path_1012" data-name="Path 1012" d="M-610.147,590.685h-.011l-.633.332-.1-.365.8-.412h.421v3.533h-.477Z" fill="#7ee8ff"/>
      <path id="Path_1013" data-name="Path 1013" d="M-605.918,591.968c0,1.2-.46,1.866-1.267,1.866-.712,0-1.194-.648-1.205-1.816,0-1.186.527-1.838,1.267-1.838C-606.356,590.18-605.918,590.843-605.918,591.968Zm-1.979.055c0,.918.292,1.44.74,1.44.5,0,.745-.571.745-1.473,0-.87-.229-1.44-.74-1.44C-607.583,590.55-607.9,591.061-607.9,592.023Z" fill="#7ee8ff"/>
      <path id="Path_1014" data-name="Path 1014" d="M-604.392,590.685h-.011l-.633.332-.1-.365.8-.412h.421v3.533h-.477Z" fill="#7ee8ff"/>
      <path id="Path_1015" data-name="Path 1015" d="M-601.514,590.685h-.011l-.634.332-.1-.365.8-.412h.42v3.533h-.476Z" fill="#7ee8ff"/>
      <path id="Path_1016" data-name="Path 1016" d="M-597.286,591.968c0,1.2-.459,1.866-1.266,1.866-.713,0-1.2-.648-1.206-1.816,0-1.186.527-1.838,1.267-1.838C-597.723,590.18-597.286,590.843-597.286,591.968Zm-1.979.055c0,.918.292,1.44.74,1.44.505,0,.746-.571.746-1.473,0-.87-.23-1.44-.74-1.44C-598.951,590.55-599.265,591.061-599.265,592.023Z" fill="#7ee8ff"/>
      <path id="Path_1017" data-name="Path 1017" d="M-595.759,590.685h-.011l-.634.332-.1-.365.8-.412h.42v3.533h-.476Z" fill="#7ee8ff"/>
      <path id="Path_1018" data-name="Path 1018" d="M-592.882,590.685h-.011l-.633.332-.1-.365.8-.412h.421v3.533h-.477Z" fill="#7ee8ff"/>
      <path id="Path_1019" data-name="Path 1019" d="M-590,590.685h-.011l-.634.332-.1-.365.8-.412h.42v3.533H-590Z" fill="#7ee8ff"/>
      <path id="Path_1020" data-name="Path 1020" d="M-585.776,591.968c0,1.2-.46,1.866-1.267,1.866-.712,0-1.194-.648-1.2-1.816,0-1.186.527-1.838,1.267-1.838C-586.213,590.18-585.776,590.843-585.776,591.968Zm-1.979.055c0,.918.292,1.44.74,1.44.505,0,.746-.571.746-1.473,0-.87-.23-1.44-.74-1.44C-587.441,590.55-587.755,591.061-587.755,592.023Z" fill="#7ee8ff"/>
      <path id="Path_1021" data-name="Path 1021" d="M-582.9,591.968c0,1.2-.46,1.866-1.267,1.866-.712,0-1.194-.648-1.206-1.816,0-1.186.528-1.838,1.268-1.838C-583.336,590.18-582.9,590.843-582.9,591.968Zm-1.979.055c0,.918.292,1.44.74,1.44.5,0,.745-.571.745-1.473,0-.87-.229-1.44-.74-1.44C-584.563,590.55-584.877,591.061-584.877,592.023Z" fill="#7ee8ff"/>
      <path id="Path_1022" data-name="Path 1022" d="M-644.6,583.936h-.011l-.634.332-.095-.365.8-.412h.421v3.533h-.477Z" fill="#7ee8ff"/>
      <path id="Path_1023" data-name="Path 1023" d="M-641.719,583.936h-.01l-.634.332-.1-.365.8-.412h.42v3.533h-.477Z" fill="#7ee8ff"/>
      <path id="Path_1024" data-name="Path 1024" d="M-637.49,585.219c0,1.2-.46,1.866-1.267,1.866-.712,0-1.194-.648-1.2-1.816,0-1.186.527-1.838,1.267-1.838C-637.927,583.431-637.49,584.094-637.49,585.219Zm-1.979.055c0,.918.292,1.44.74,1.44.505,0,.746-.571.746-1.473,0-.87-.23-1.44-.74-1.44C-639.155,583.8-639.469,584.311-639.469,585.274Z" fill="#7ee8ff"/>
      <path id="Path_1025" data-name="Path 1025" d="M-634.612,585.219c0,1.2-.46,1.866-1.267,1.866-.712,0-1.194-.648-1.206-1.816,0-1.186.528-1.838,1.268-1.838C-635.05,583.431-634.612,584.094-634.612,585.219Zm-1.979.055c0,.918.291,1.44.74,1.44.5,0,.745-.571.745-1.473,0-.87-.229-1.44-.74-1.44C-636.277,583.8-636.591,584.311-636.591,585.274Z" fill="#7ee8ff"/>
      <path id="Path_1026" data-name="Path 1026" d="M-631.735,585.219c0,1.2-.46,1.866-1.267,1.866-.712,0-1.194-.648-1.2-1.816,0-1.186.527-1.838,1.267-1.838C-632.172,583.431-631.735,584.094-631.735,585.219Zm-1.979.055c0,.918.292,1.44.74,1.44.505,0,.746-.571.746-1.473,0-.87-.23-1.44-.74-1.44C-633.4,583.8-633.714,584.311-633.714,585.274Z" fill="#7ee8ff"/>
      <path id="Path_1027" data-name="Path 1027" d="M-630.209,583.936h-.011l-.633.332-.1-.365.8-.412h.42v3.533h-.477Z" fill="#7ee8ff"/>
      <path id="Path_1028" data-name="Path 1028" d="M-625.98,585.219c0,1.2-.46,1.866-1.267,1.866-.712,0-1.194-.648-1.205-1.816,0-1.186.527-1.838,1.267-1.838C-626.417,583.431-625.98,584.094-625.98,585.219Zm-1.979.055c0,.918.292,1.44.74,1.44.505,0,.746-.571.746-1.473,0-.87-.23-1.44-.74-1.44C-627.645,583.8-627.959,584.311-627.959,585.274Z" fill="#7ee8ff"/>
      <path id="Path_1029" data-name="Path 1029" d="M-624.454,583.936h-.011l-.633.332-.1-.365.8-.412h.42v3.533h-.477Z" fill="#7ee8ff"/>
      <path id="Path_1030" data-name="Path 1030" d="M-621.576,583.936h-.011l-.634.332-.095-.365.8-.412h.42v3.533h-.476Z" fill="#7ee8ff"/>
      <path id="Path_1031" data-name="Path 1031" d="M-618.7,583.936h-.011l-.633.332-.1-.365.8-.412h.421v3.533h-.477Z" fill="#7ee8ff"/>
      <path id="Path_1032" data-name="Path 1032" d="M-615.821,583.936h-.011l-.634.332-.095-.365.8-.412h.42v3.533h-.476Z" fill="#7ee8ff"/>
      <path id="Path_1033" data-name="Path 1033" d="M-611.593,585.219c0,1.2-.459,1.866-1.266,1.866-.712,0-1.194-.648-1.206-1.816,0-1.186.527-1.838,1.267-1.838C-612.03,583.431-611.593,584.094-611.593,585.219Zm-1.978.055c0,.918.291,1.44.74,1.44.5,0,.745-.571.745-1.473,0-.87-.23-1.44-.74-1.44C-613.257,583.8-613.571,584.311-613.571,585.274Z" fill="#7ee8ff"/>
      <path id="Path_1034" data-name="Path 1034" d="M-608.715,585.219c0,1.2-.46,1.866-1.267,1.866-.712,0-1.194-.648-1.205-1.816,0-1.186.527-1.838,1.267-1.838C-609.152,583.431-608.715,584.094-608.715,585.219Zm-1.979.055c0,.918.292,1.44.74,1.44.5,0,.745-.571.745-1.473,0-.87-.229-1.44-.739-1.44C-610.38,583.8-610.694,584.311-610.694,585.274Z" fill="#7ee8ff"/>
      <path id="Path_1035" data-name="Path 1035" d="M-605.838,585.219c0,1.2-.459,1.866-1.266,1.866-.712,0-1.194-.648-1.206-1.816,0-1.186.527-1.838,1.267-1.838C-606.275,583.431-605.838,584.094-605.838,585.219Zm-1.978.055c0,.918.291,1.44.74,1.44.5,0,.745-.571.745-1.473,0-.87-.23-1.44-.74-1.44C-607.5,583.8-607.816,584.311-607.816,585.274Z" fill="#7ee8ff"/>
      <path id="Path_1036" data-name="Path 1036" d="M-602.96,585.219c0,1.2-.46,1.866-1.267,1.866-.712,0-1.194-.648-1.205-1.816,0-1.186.527-1.838,1.267-1.838C-603.4,583.431-602.96,584.094-602.96,585.219Zm-1.979.055c0,.918.292,1.44.74,1.44.5,0,.745-.571.745-1.473,0-.87-.229-1.44-.74-1.44C-604.625,583.8-604.939,584.311-604.939,585.274Z" fill="#7ee8ff"/>
      <path id="Path_1037" data-name="Path 1037" d="M-601.434,583.936h-.011l-.633.332-.1-.365.8-.412h.421v3.533h-.477Z" fill="#7ee8ff"/>
      <path id="Path_1038" data-name="Path 1038" d="M-598.556,583.936h-.011l-.634.332-.1-.365.8-.412h.42v3.533h-.476Z" fill="#7ee8ff"/>
      <path id="Path_1039" data-name="Path 1039" d="M-595.679,583.936h-.011l-.633.332-.1-.365.8-.412h.421v3.533h-.477Z" fill="#7ee8ff"/>
      <path id="Path_1040" data-name="Path 1040" d="M-592.8,583.936h-.011l-.634.332-.1-.365.8-.412h.42v3.533h-.476Z" fill="#7ee8ff"/>
      <path id="Path_1041" data-name="Path 1041" d="M-588.573,585.219c0,1.2-.459,1.866-1.266,1.866-.713,0-1.2-.648-1.206-1.816,0-1.186.527-1.838,1.267-1.838C-589.01,583.431-588.573,584.094-588.573,585.219Zm-1.979.055c0,.918.292,1.44.74,1.44.505,0,.746-.571.746-1.473,0-.87-.23-1.44-.74-1.44C-590.237,583.8-590.552,584.311-590.552,585.274Z" fill="#7ee8ff"/>
      <path id="Path_1042" data-name="Path 1042" d="M-585.7,585.219c0,1.2-.46,1.866-1.267,1.866-.712,0-1.194-.648-1.205-1.816,0-1.186.527-1.838,1.267-1.838C-586.133,583.431-585.7,584.094-585.7,585.219Zm-1.979.055c0,.918.292,1.44.74,1.44.5,0,.745-.571.745-1.473,0-.87-.229-1.44-.74-1.44C-587.36,583.8-587.674,584.311-587.674,585.274Z" fill="#7ee8ff"/>
      <path id="Path_1043" data-name="Path 1043" d="M-582.818,585.219c0,1.2-.459,1.866-1.266,1.866-.713,0-1.2-.648-1.206-1.816,0-1.186.527-1.838,1.267-1.838C-583.255,583.431-582.818,584.094-582.818,585.219Zm-1.979.055c0,.918.292,1.44.74,1.44.505,0,.746-.571.746-1.473,0-.87-.23-1.44-.74-1.44C-584.483,583.8-584.8,584.311-584.8,585.274Z" fill="#7ee8ff"/>
      <path id="Path_1044" data-name="Path 1044" d="M-644.581,608.7h-.011l-.634.332-.095-.365.8-.413h.42v3.534h-.476Z" fill="#7ee8ff"/>
      <path id="Path_1045" data-name="Path 1045" d="M-641.7,608.7h-.011l-.633.332-.1-.365.8-.413h.421v3.534h-.477Z" fill="#7ee8ff"/>
      <path id="Path_1046" data-name="Path 1046" d="M-637.475,609.983c0,1.2-.46,1.865-1.267,1.865-.712,0-1.194-.647-1.206-1.816,0-1.185.528-1.838,1.268-1.838C-637.913,608.194-637.475,608.857-637.475,609.983Zm-1.979.054c0,.919.292,1.441.74,1.441.5,0,.745-.571.745-1.473,0-.871-.229-1.441-.74-1.441C-639.14,608.564-639.454,609.075-639.454,610.037Z" fill="#7ee8ff"/>
      <path id="Path_1047" data-name="Path 1047" d="M-634.6,609.983c0,1.2-.46,1.865-1.267,1.865-.712,0-1.194-.647-1.205-1.816,0-1.185.527-1.838,1.267-1.838C-635.035,608.194-634.6,608.857-634.6,609.983Zm-1.979.054c0,.919.292,1.441.74,1.441.505,0,.746-.571.746-1.473,0-.871-.23-1.441-.74-1.441C-636.263,608.564-636.577,609.075-636.577,610.037Z" fill="#7ee8ff"/>
      <path id="Path_1048" data-name="Path 1048" d="M-631.72,609.983c0,1.2-.46,1.865-1.267,1.865-.712,0-1.194-.647-1.206-1.816,0-1.185.528-1.838,1.268-1.838C-632.158,608.194-631.72,608.857-631.72,609.983Zm-1.979.054c0,.919.292,1.441.74,1.441.5,0,.745-.571.745-1.473,0-.871-.229-1.441-.74-1.441C-633.385,608.564-633.7,609.075-633.7,610.037Z" fill="#7ee8ff"/>
      <path id="Path_1049" data-name="Path 1049" d="M-630.194,608.7h-.011l-.634.332-.1-.365.8-.413h.42v3.534h-.476Z" fill="#7ee8ff"/>
      <path id="Path_1050" data-name="Path 1050" d="M-625.965,609.983c0,1.2-.46,1.865-1.267,1.865-.712,0-1.194-.647-1.206-1.816,0-1.185.528-1.838,1.267-1.838C-626.4,608.194-625.965,608.857-625.965,609.983Zm-1.979.054c0,.919.291,1.441.74,1.441.5,0,.745-.571.745-1.473,0-.871-.229-1.441-.74-1.441C-627.63,608.564-627.944,609.075-627.944,610.037Z" fill="#7ee8ff"/>
      <path id="Path_1051" data-name="Path 1051" d="M-624.439,608.7h-.011l-.634.332-.1-.365.8-.413h.42v3.534h-.476Z" fill="#7ee8ff"/>
      <path id="Path_1052" data-name="Path 1052" d="M-621.562,608.7h-.011l-.633.332-.1-.365.8-.413h.42v3.534h-.477Z" fill="#7ee8ff"/>
      <path id="Path_1053" data-name="Path 1053" d="M-618.684,608.7h-.011l-.634.332-.1-.365.8-.413h.42v3.534h-.476Z" fill="#7ee8ff"/>
      <path id="Path_1054" data-name="Path 1054" d="M-615.807,608.7h-.011l-.633.332-.1-.365.8-.413h.421v3.534h-.477Z" fill="#7ee8ff"/>
      <path id="Path_1055" data-name="Path 1055" d="M-611.578,609.983c0,1.2-.46,1.865-1.267,1.865-.712,0-1.194-.647-1.205-1.816,0-1.185.527-1.838,1.267-1.838C-612.015,608.194-611.578,608.857-611.578,609.983Zm-1.979.054c0,.919.292,1.441.74,1.441.5,0,.746-.571.746-1.473,0-.871-.23-1.441-.74-1.441C-613.243,608.564-613.557,609.075-613.557,610.037Z" fill="#7ee8ff"/>
      <path id="Path_1056" data-name="Path 1056" d="M-608.7,609.983c0,1.2-.459,1.865-1.266,1.865-.712,0-1.194-.647-1.206-1.816,0-1.185.527-1.838,1.267-1.838C-609.138,608.194-608.7,608.857-608.7,609.983Zm-1.978.054c0,.919.291,1.441.74,1.441.5,0,.745-.571.745-1.473,0-.871-.23-1.441-.74-1.441C-610.365,608.564-610.679,609.075-610.679,610.037Z" fill="#7ee8ff"/>
      <path id="Path_1057" data-name="Path 1057" d="M-605.823,609.983c0,1.2-.46,1.865-1.267,1.865-.712,0-1.194-.647-1.2-1.816,0-1.185.527-1.838,1.267-1.838C-606.26,608.194-605.823,608.857-605.823,609.983Zm-1.979.054c0,.919.292,1.441.74,1.441.5,0,.745-.571.745-1.473,0-.871-.229-1.441-.739-1.441C-607.488,608.564-607.8,609.075-607.8,610.037Z" fill="#7ee8ff"/>
      <path id="Path_1058" data-name="Path 1058" d="M-602.946,609.983c0,1.2-.459,1.865-1.266,1.865-.712,0-1.194-.647-1.206-1.816,0-1.185.527-1.838,1.267-1.838C-603.383,608.194-602.946,608.857-602.946,609.983Zm-1.978.054c0,.919.291,1.441.74,1.441.5,0,.745-.571.745-1.473,0-.871-.23-1.441-.74-1.441C-604.61,608.564-604.924,609.075-604.924,610.037Z" fill="#7ee8ff"/>
      <path id="Path_1059" data-name="Path 1059" d="M-601.419,608.7h-.011l-.634.332-.095-.365.8-.413h.42v3.534h-.476Z" fill="#7ee8ff"/>
      <path id="Path_1060" data-name="Path 1060" d="M-598.542,608.7h-.011l-.633.332-.1-.365.8-.413h.421v3.534h-.477Z" fill="#7ee8ff"/>
      <path id="Path_1061" data-name="Path 1061" d="M-595.664,608.7h-.011l-.634.332-.095-.365.8-.413h.42v3.534h-.476Z" fill="#7ee8ff"/>
      <path id="Path_1062" data-name="Path 1062" d="M-592.787,608.7h-.011l-.633.332-.1-.365.8-.413h.421v3.534h-.477Z" fill="#7ee8ff"/>
      <path id="Path_1063" data-name="Path 1063" d="M-588.558,609.983c0,1.2-.46,1.865-1.267,1.865-.712,0-1.194-.647-1.205-1.816,0-1.185.527-1.838,1.267-1.838C-589,608.194-588.558,608.857-588.558,609.983Zm-1.979.054c0,.919.292,1.441.74,1.441.5,0,.745-.571.745-1.473,0-.871-.229-1.441-.74-1.441C-590.223,608.564-590.537,609.075-590.537,610.037Z" fill="#7ee8ff"/>
      <path id="Path_1064" data-name="Path 1064" d="M-585.681,609.983c0,1.2-.459,1.865-1.266,1.865-.712,0-1.2-.647-1.206-1.816,0-1.185.527-1.838,1.267-1.838C-586.118,608.194-585.681,608.857-585.681,609.983Zm-1.978.054c0,.919.291,1.441.739,1.441.505,0,.746-.571.746-1.473,0-.871-.23-1.441-.74-1.441C-587.345,608.564-587.659,609.075-587.659,610.037Z" fill="#7ee8ff"/>
      <path id="Path_1065" data-name="Path 1065" d="M-582.8,609.983c0,1.2-.46,1.865-1.267,1.865-.712,0-1.194-.647-1.205-1.816,0-1.185.527-1.838,1.267-1.838C-583.241,608.194-582.8,608.857-582.8,609.983Zm-1.979.054c0,.919.292,1.441.74,1.441.5,0,.745-.571.745-1.473,0-.871-.229-1.441-.74-1.441C-584.468,608.564-584.782,609.075-584.782,610.037Z" fill="#7ee8ff"/>
    </g>
    <path id="Path_1066" data-name="Path 1066" d="M-618.035,563.382v11.739a2.675,2.675,0,0,0,2.675,2.675h28.694a2.676,2.676,0,0,0,2.676-2.675V563.466Z" opacity="0.15"/>
    <g id="Group_192" data-name="Group 192">
      <path id="Rectangle_61" data-name="Rectangle 61" d="M.573,0H33.48a.564.564,0,0,1,.564.564V20.21a.678.678,0,0,1-.678.678H.678A.678.678,0,0,1,0,20.21V.573A.573.573,0,0,1,.573,0Z" transform="translate(-619.943 555)" fill="#fff"/>
      <path id="Path_1067" data-name="Path 1067" d="M-588.143,553H-617.7a2.245,2.245,0,0,0-2.245,2.244v.793H-585.9v-.793A2.244,2.244,0,0,0-588.143,553Z" fill="#1e1e1e"/>
      <rect id="Rectangle_62" data-name="Rectangle 62" width="13.14" height="0.798" transform="translate(-617.056 557.416)" fill="#7ee8ff"/>
      <rect id="Rectangle_63" data-name="Rectangle 63" width="11.878" height="0.798" transform="translate(-601.616 557.416)" fill="#7ee8ff"/>
      <rect id="Rectangle_64" data-name="Rectangle 64" width="13.14" height="0.798" transform="translate(-617.056 573.268)" fill="#7ee8ff"/>
      <rect id="Rectangle_65" data-name="Rectangle 65" width="11.878" height="0.798" transform="translate(-601.616 573.268)" fill="#7ee8ff"/>
      <rect id="Rectangle_66" data-name="Rectangle 66" width="13.14" height="0.798" transform="translate(-613.521 560.78)" fill="#7ee8ff"/>
      <rect id="Rectangle_67" data-name="Rectangle 67" width="6.899" height="0.798" transform="translate(-598.838 560.78)" fill="#7ee8ff"/>
      <rect id="Rectangle_68" data-name="Rectangle 68" width="8.956" height="0.798" transform="translate(-613.588 564.125)" fill="#7ee8ff"/>
      <rect id="Rectangle_69" data-name="Rectangle 69" width="10.859" height="0.798" transform="translate(-602.865 564.125)" fill="#7ee8ff"/>
      <rect id="Rectangle_70" data-name="Rectangle 70" width="5.208" height="0.798" transform="translate(-611.185 567.204)" fill="#7ee8ff"/>
      <rect id="Rectangle_71" data-name="Rectangle 71" width="10.733" height="0.798" transform="translate(-604.488 567.204)" fill="#7ee8ff"/>
      <rect id="Rectangle_72" data-name="Rectangle 72" width="10.566" height="0.798" transform="translate(-611.171 570.284)" fill="#7ee8ff"/>
      <rect id="Rectangle_73" data-name="Rectangle 73" width="8.331" height="0.798" transform="translate(-597.921 570.284)" fill="#7ee8ff"/>
      <rect id="Rectangle_74" data-name="Rectangle 74" width="0.18" height="14.293" transform="translate(-617.056 558.537)" fill="#7ee8ff"/>
    </g>
    <path id="Path_1068" data-name="Path 1068" d="M-649.457,574.591v2.585h19.764a1.743,1.743,0,0,0,1.743-1.752l-.067-11.945h-2.811Z" opacity="0.15"/>
    <rect id="Rectangle_75" data-name="Rectangle 75" width="29.706" height="18.174" rx="0.298" transform="translate(-660.133 556.417)" fill="#faf4f3"/>
    <path id="Path_1069" data-name="Path 1069" d="M-633.675,574.724v-.266h2.125a.994.994,0,0,0,.31-.051l.083.253a1.292,1.292,0,0,1-.392.064Zm-2.124,0h-2.125v-.266h2.125Zm-4.249,0h-2.125v-.266h2.125Zm-4.249,0h-2.124v-.266h2.124Zm-4.249,0h-2.124v-.266h2.124Zm-4.249,0h-2.124v-.266h2.124Zm-4.249,0h-1.965a1.156,1.156,0,0,1-.177-.013l.037-.263a1.075,1.075,0,0,0,.14.01h1.965ZM-660,572.95h-.265v-2.125H-660Zm29.707-.2h-.266v-2.125h.266ZM-660,568.7h-.265v-2.124H-660Zm29.707-.2h-.266v-2.125h.266ZM-660,564.452h-.265v-2.124H-660Zm29.707-.2h-.266v-2.125h.266ZM-660,560.2h-.265v-2.124H-660Zm29.707-.2h-.266v-2.124h.266Zm-28.873-3.441-.043-.261a1.207,1.207,0,0,1,.2-.017h1.944v.266h-1.944A1.022,1.022,0,0,0-659.167,556.562Zm27.6-.012H-633.7v-.266h2.125Zm-4.249,0h-2.124v-.266h2.124Zm-4.249,0h-2.124v-.266h2.124Zm-4.249,0h-2.124v-.266h2.124Zm-4.249,0h-2.124v-.266h2.124Zm-4.249,0h-2.125v-.266h2.125Z" fill="#fff"/>
    <g id="Group_193" data-name="Group 193">
      <path id="Path_1070" data-name="Path 1070" d="M-645.2,568.578a4.208,4.208,0,0,1-1.734.311,3.068,3.068,0,0,1-3.245-3.323,3.268,3.268,0,0,1,3.43-3.448,3.523,3.523,0,0,1,1.559.292l-.2.692a3.1,3.1,0,0,0-1.325-.273,2.442,2.442,0,0,0-2.563,2.709,2.387,2.387,0,0,0,2.524,2.64,3.371,3.371,0,0,0,1.384-.273Z" fill="#7ee8ff"/>
      <path id="Path_1071" data-name="Path 1071" d="M-643.968,568.792l.253-1.91h-.8v-.575h.887l.185-1.412h-.838v-.576h.926l.253-1.86h.566l-.245,1.86h1.014l.253-1.86h.575l-.243,1.86h.8v.576h-.887l-.176,1.412h.838v.575h-.926l-.253,1.91h-.584l.253-1.91h-1.014l-.253,1.91Zm1.939-2.485.185-1.412h-1.014l-.184,1.412Z" fill="#7ee8ff"/>
    </g>
    <rect id="Rectangle_76" data-name="Rectangle 76" width="35.963" height="21.431" rx="0.71" transform="translate(-641.998 591.9)" opacity="0.15"/>
    <g id="Group_194" data-name="Group 194">
      <path id="Rectangle_77" data-name="Rectangle 77" d="M.528,0H35.433a.53.53,0,0,1,.53.53V19.458a.688.688,0,0,1-.688.688H.688A.688.688,0,0,1,0,19.458V.528A.528.528,0,0,1,.528,0Z" transform="translate(-644.042 591)" fill="#fff"/>
      <path id="Path_1072" data-name="Path 1072" d="M-610.45,589.715h-31.221a2.248,2.248,0,0,0-2.371,2.1v.742h35.963v-.742A2.248,2.248,0,0,0-610.45,589.715Z" fill="#1e1e1e"/>
      <rect id="Rectangle_78" data-name="Rectangle 78" width="2.889" height="0.941" transform="translate(-641.428 594.132)" fill="#514546"/>
      <rect id="Rectangle_79" data-name="Rectangle 79" width="2.889" height="0.941" transform="translate(-641.437 597.648)" fill="#514546"/>
      <rect id="Rectangle_80" data-name="Rectangle 80" width="2.889" height="0.941" transform="translate(-641.454 601.276)" fill="#514546"/>
      <rect id="Rectangle_81" data-name="Rectangle 81" width="2.889" height="0.941" transform="translate(-641.437 604.905)" fill="#514546"/>
      <rect id="Rectangle_82" data-name="Rectangle 82" width="2.889" height="0.941" transform="translate(-641.437 608.421)" fill="#514546"/>
      <rect id="Rectangle_83" data-name="Rectangle 83" width="6.557" height="0.941" transform="translate(-632.661 597.76)" fill="#7ee8ff"/>
      <rect id="Rectangle_84" data-name="Rectangle 84" width="7.95" height="0.941" transform="translate(-624.81 597.76)" fill="#7ee8ff"/>
      <rect id="Rectangle_85" data-name="Rectangle 85" width="3.539" height="0.941" transform="translate(-632.661 601.388)" fill="#7ee8ff"/>
      <rect id="Rectangle_86" data-name="Rectangle 86" width="10.651" height="0.941" transform="translate(-627.511 601.388)" fill="#7ee8ff"/>
      <rect id="Rectangle_87" data-name="Rectangle 87" width="9.621" height="0.941" transform="translate(-635.94 594.132)" fill="#7ee8ff"/>
      <rect id="Rectangle_88" data-name="Rectangle 88" width="5.051" height="0.941" transform="translate(-625.19 594.132)" fill="#7ee8ff"/>
      <rect id="Rectangle_89" data-name="Rectangle 89" width="9.621" height="0.941" transform="translate(-635.94 604.905)" fill="#7ee8ff"/>
      <rect id="Rectangle_90" data-name="Rectangle 90" width="12.259" height="0.941" transform="translate(-625.19 604.905)" fill="#7ee8ff"/>
      <rect id="Rectangle_91" data-name="Rectangle 91" width="16.303" height="0.941" transform="translate(-635.94 608.421)" fill="#7ee8ff"/>
      <rect id="Rectangle_92" data-name="Rectangle 92" width="8.696" height="0.941" transform="translate(-619.009 594.132)" fill="#7ee8ff"/>
      <rect id="Rectangle_93" data-name="Rectangle 93" width="0.132" height="9.199" transform="translate(-635.956 595.341)" fill="#7ee8ff"/>
    </g>
  </g>
  <path id="Path_1073" data-name="Path 1073" d="M-683.157,633.235S-679.432,635-676,640.6c3.375,5.5,6.466,6.311,8.818,6.86l-2.834,4.4-9.6-8.224Z" transform="translate(749.202 -553)" fill="#62d9ed"/>
  <path id="Path_1074" data-name="Path 1074" d="M-684.648,632.063s-7.656-6.113-11.891-2.937-2.95,9.139-.227,14.205,13.187,11.736,16.656,13.929,8.688,2.557,8.688,2.557,1.426-8.243,4.867-11.495c0,0-5.86-1.588-8.129-4.839S-679.614,635.75-684.648,632.063Z" transform="translate(749.202 -553)" fill="#7ee8ff"/>
  <path id="Path_1075" data-name="Path 1075" d="M-663.189,648.909s6.787.737,12.345,1.758,17.583,3.913,21.78,3.176l1.839,4.895s-1.329,1.013-5.98,1.093-14.349.648-17.639,1.839-13.385,1.361-16.391-1.078S-667.651,647.547-663.189,648.909Z" transform="translate(749.202 -553)" fill="#ffba94"/>
  <path id="Path_1076" data-name="Path 1076" d="M-620.084,650.911a9.433,9.433,0,0,1,1.853.418,7.5,7.5,0,0,1,2.817,1.342c1.059.888,2.766,3.391,1.43,5.042l-.9-.013Z" transform="translate(749.202 -553)" fill="#f7ab86"/>
  <path id="Path_1077" data-name="Path 1077" d="M-669.263,647.346a20.376,20.376,0,0,0-3.36,6.724,15.61,15.61,0,0,0-.794,5.761s2.155,2.236,6.182.761c0,0,.038-7.373,4.046-11.683a3.393,3.393,0,0,0-2.458-1.563C-667.405,647.094-667.889,646.691-669.263,647.346Z" transform="translate(749.202 -553)" fill="#62d9ed"/>
  <path id="Path_1078" data-name="Path 1078" d="M-630.162,654.172s3.584-2.723,6.926-3.3,4.553.752,5.958,1.14,3.342,2.518,3.293,4.311a2.205,2.205,0,0,1-1.84,2.082s-2.793-1.441-4.391-1.344a14.989,14.989,0,0,0-5.732,2C-627.256,659.926-632.1,658.978-630.162,654.172Z" transform="translate(749.202 -553)" fill="#ffba94"/>
  <path id="Path_1079" data-name="Path 1079" d="M-676.29,640.647a17.089,17.089,0,0,0-1.647-8.016,37.027,37.027,0,0,1,.824,7.033Z" transform="translate(749.202 -553)" fill="#62d9ed"/>
  <path id="Path_1080" data-name="Path 1080" d="M-666.609,633.743a.6.6,0,0,1,.235-.8.6.6,0,0,1,.723.425.6.6,0,0,1-.235.805A.6.6,0,0,1-666.609,633.743Z" transform="translate(749.202 -553)" fill="#62d9ed"/>
  <path id="Path_1081" data-name="Path 1081" d="M-663.06,643.158a.6.6,0,0,1,.235-.8.6.6,0,0,1,.723.426.6.6,0,0,1-.235.8A.6.6,0,0,1-663.06,643.158Z" transform="translate(749.202 -553)" fill="#62d9ed"/>
  <path id="Path_1082" data-name="Path 1082" d="M-611.616,657.209l-26.126,2.991.139,1.029,26.082-2.979Z" transform="translate(749.202 -553)" fill="#dececa"/>
  <path id="Path_1083" data-name="Path 1083" d="M-604.426,627.579l-7.831,29.705,23.519-2.742,8.3-27.7a.586.586,0,0,0-.594-.734l-22.86,1.039A.586.586,0,0,0-604.426,627.579Z" transform="translate(749.202 -553)" fill="#adadad"/>
  <path id="Path_1084" data-name="Path 1084" d="M-603.934,628.07l-7.959,30.224,23.524-2.707,8.427-28.257a.585.585,0,0,0-.594-.734l-22.86,1.039A.585.585,0,0,0-603.934,628.07Z" transform="translate(749.202 -553)" fill="#edeeed"/>
  <path id="Path_1085" data-name="Path 1085" d="M-634.577,660.125l.049.432,2.109-.247-.052-.417Z" transform="translate(749.202 -553)" fill="#007290"/>
  <path id="Path_1086" data-name="Path 1086" d="M-630.7,659.674l.049.432,2.109-.247-.052-.417Z" transform="translate(749.202 -553)" fill="#dececa"/>
  <path id="Path_1087" data-name="Path 1087" d="M-626.632,659.241l.049.432,2.109-.247-.052-.417Z" transform="translate(749.202 -553)" fill="#dececa"/>
  <path id="Path_1088" data-name="Path 1088" d="M-650.568,668.03a66.118,66.118,0,0,1,33.779,9.841l-11.752,4.1-27.8-9.919Z" transform="translate(749.202 -553)" fill="#20a1b7"/>
  <path id="Path_1089" data-name="Path 1089" d="M-534.692,721.065c2.662-2.051,10.593-5.117,14.641-7.93,2.829-1.966,4.047-5.05,3.6-7.078-3.787-1.6-8.829,3.812-11.715,7.145-3.265,3.771-6.2,7.061-11.154,8.725a15.664,15.664,0,0,0-5.184,2.62C-541.769,724.845-537.4,723.152-534.692,721.065Z" transform="translate(749.202 -553)" fill="#ffd9aa"/>
  <path id="Path_1090" data-name="Path 1090" d="M-530.89,693.847a.131.131,0,0,1-.1-.043.134.134,0,0,1,.01-.188,6.231,6.231,0,0,0,1.549-4.771,4.882,4.882,0,0,0-1.361-3.579,1.806,1.806,0,0,0-2.492.378,2.207,2.207,0,0,0,.172,3.14,6.91,6.91,0,0,1,2.032,4.939.132.132,0,0,1-.141.124.134.134,0,0,1-.125-.141,6.756,6.756,0,0,0-1.955-4.735,2.46,2.46,0,0,1-.181-3.5,2.062,2.062,0,0,1,2.852-.414,5.068,5.068,0,0,1,1.465,3.78c.066,1.627-.328,3.79-1.637,4.978A.13.13,0,0,1-530.89,693.847Z" transform="translate(749.202 -553)" fill="#800303"/>
  <path id="Path_1091" data-name="Path 1091" d="M-529.705,693.54a.134.134,0,0,1-.116-.068.134.134,0,0,1,.052-.181,15.369,15.369,0,0,0,4.99-5.029c1.453-2.371,3.833-5.068,6.154-5.53a2.927,2.927,0,0,1,2.375.5.135.135,0,0,1,.03.186.135.135,0,0,1-.186.03,2.659,2.659,0,0,0-2.167-.451c-2.238.445-4.556,3.085-5.98,5.408a15.681,15.681,0,0,1-5.087,5.123A.139.139,0,0,1-529.705,693.54Z" transform="translate(749.202 -553)" fill="#800303"/>
  <path id="Path_1092" data-name="Path 1092" d="M-527.371,700.7a5.766,5.766,0,0,1-1.54-.214,3.8,3.8,0,0,1-2.714-2.118c-.824-2.007.555-4.462.614-4.564a.129.129,0,0,1,.181-.05.13.13,0,0,1,.065.138.135.135,0,0,1,.122.123c.121,1.641,1.081,1.955,2.3,2.352a6.07,6.07,0,0,1,2.725,1.5c.891.924.809,1.568.583,1.946A2.718,2.718,0,0,1-527.371,700.7Zm-3.527-6.537c-.315.648-1.117,2.557-.481,4.1a3.556,3.556,0,0,0,2.539,1.963c1.505.42,3.143.166,3.573-.558.324-.54-.118-1.183-.546-1.625a5.86,5.86,0,0,0-2.617-1.429C-529.658,696.222-530.722,695.874-530.9,694.167Z" transform="translate(749.202 -553)" fill="#800303"/>
  <path id="Path_1093" data-name="Path 1093" d="M-537.435,704.614a.131.131,0,0,1-.128-.1c-.28-1.165-.342-1.2-.82-1.489a8.888,8.888,0,0,1-1.581-1.188,2.246,2.246,0,0,1-.636-2.994,1.946,1.946,0,0,1,2.635-.418c2.255,1.207,1.718,4.9,1.245,5.848a.132.132,0,0,1-.178.06.134.134,0,0,1-.061-.178c.394-.792.972-4.37-1.13-5.5a1.7,1.7,0,0,0-2.294.336,1.993,1.993,0,0,0,.6,2.645,8.649,8.649,0,0,0,1.538,1.158c.546.326.644.415.941,1.654a.13.13,0,0,1-.1.159A.082.082,0,0,1-537.435,704.614Z" transform="translate(749.202 -553)" fill="#800303"/>
  <path id="Path_1094" data-name="Path 1094" d="M-541.644,714.409h-.013a.131.131,0,0,1-.119-.144c.1-1.132,1.167-1.777,2.293-2.461,1.078-.655,2.193-1.333,2.516-2.48a6.488,6.488,0,0,0-.117-4.084.132.132,0,0,1,.067-.175.136.136,0,0,1,.176.067,6.659,6.659,0,0,1,.129,4.265c-.35,1.247-1.511,1.952-2.634,2.633-1.066.649-2.074,1.261-2.166,2.26A.133.133,0,0,1-541.644,714.409Z" transform="translate(749.202 -553)" fill="#800303"/>
  <path id="Path_1095" data-name="Path 1095" d="M-667.582,608.407a4.782,4.782,0,0,1-3.21-1.226.13.13,0,0,1,0-.186.132.132,0,0,1,.187,0,4.582,4.582,0,0,0,4.208,1,.131.131,0,0,1,.161.1.133.133,0,0,1-.1.161A5.146,5.146,0,0,1-667.582,608.407Z" transform="translate(749.202 -553)" fill="#f7ab86"/>
  <path id="Path_1096" data-name="Path 1096" d="M-665.426,605.775a5.686,5.686,0,0,1-1.97-.473.133.133,0,0,1-.067-.175.136.136,0,0,1,.176-.068,4.18,4.18,0,0,0,2.425.361.474.474,0,0,0,.288-.27c.2-.486-.228-1.413-.483-1.967l-.1-.211a12.229,12.229,0,0,1-.672-2.77.134.134,0,0,1,.115-.149.125.125,0,0,1,.148.115,12.166,12.166,0,0,0,.652,2.7l.094.207c.291.632.729,1.586.488,2.177a.737.737,0,0,1-.439.419A1.835,1.835,0,0,1-665.426,605.775Z" transform="translate(749.202 -553)" fill="#f7ab86"/>
  <path id="Path_1097" data-name="Path 1097" d="M-673.378,597.532a5.62,5.62,0,0,1,4.27-.475.5.5,0,0,0,.27-.963S-671.8,594.984-673.378,597.532Z" transform="translate(749.202 -553)" fill="#183a49"/>
  <path id="Path_1098" data-name="Path 1098" d="M-659.8,598.064a5.211,5.211,0,0,0-3.92-.708.464.464,0,0,1-.189-.908S-661.1,595.607-659.8,598.064Z" transform="translate(749.202 -553)" fill="#183a49"/>
  <path id="Path_1099" data-name="Path 1099" d="M-669.008,599.916c0,.59-.341,1.069-.761,1.069s-.762-.479-.762-1.069.341-1.069.762-1.069S-669.008,599.325-669.008,599.916Z" transform="translate(749.202 -553)" fill="#183a49"/>
  <path id="Path_1100" data-name="Path 1100" d="M-662.032,600.283c0,.59-.341,1.069-.762,1.069s-.761-.479-.761-1.069.341-1.069.761-1.069S-662.032,599.693-662.032,600.283Z" transform="translate(749.202 -553)" fill="#183a49"/>
  <path id="Path_1101" data-name="Path 1101" d="M-678.618,598.721s2.9-2.275,4.067-7.94c0,0,8.35,2.034,14.66.6l-.107-1s-5.868,1.887-15.221-.749A12.619,12.619,0,0,1-678.618,598.721Z" transform="translate(749.202 -553)" fill="#f7ab86"/>
  <g id="Group_197" data-name="Group 197" transform="translate(749.202 -553)">
    <rect id="Rectangle_94" data-name="Rectangle 94" width="43.703" height="23.616" rx="0.676" transform="translate(-570.226 631)" fill="#faf4f3"/>
    <path id="Path_1102" data-name="Path 1102" d="M-529.4,628.573h-37.941a2.732,2.732,0,0,0-2.881,2.554v.9h43.7v-.9A2.732,2.732,0,0,0-529.4,628.573Z" fill="#1e1e1e"/>
    <g id="Group_196" data-name="Group 196">
      <path id="Path_1103" data-name="Path 1103" d="M-535.284,645.69a1.943,1.943,0,0,1-.533-.074c-1.272-.371-1.922-2-1.45-3.621a3.544,3.544,0,0,1,1.252-1.87,2.164,2.164,0,0,1,1.913-.409c1.272.371,1.922,1.994,1.449,3.62A3.009,3.009,0,0,1-535.284,645.69Zm.642-5.519a1.784,1.784,0,0,0-1.057.381,3.014,3.014,0,0,0-1.057,1.591c-.391,1.345.1,2.674,1.088,2.962s2.114-.572,2.505-1.917h0c.391-1.345-.1-2.673-1.088-2.961A1.361,1.361,0,0,0-534.642,640.171Z" fill="#cc787c"/>
      <path id="Path_1104" data-name="Path 1104" d="M-533.234,640.93a.264.264,0,0,1-.215-.11c-.074-.1-.056-.189-.016-.375.215-1.005.149-1.565-.2-1.665-.539-.161-1,.877-1.118,1.253a.264.264,0,0,1-.333.173.264.264,0,0,1-.173-.333c.226-.721.866-1.869,1.772-1.6.995.291.673,1.794.567,2.288-.01.045-.018.081-.022.1a.265.265,0,0,1-.11.219A.275.275,0,0,1-533.234,640.93Z" fill="#cc787c"/>
      <path id="Path_1105" data-name="Path 1105" d="M-532.779,642.217a.265.265,0,0,1-.264-.236.265.265,0,0,1,.235-.293l1.869-.206,1.693-1.583a.265.265,0,0,1,.375.012.266.266,0,0,1-.012.376l-1.822,1.7-2.045.225A.15.15,0,0,1-532.779,642.217Z" fill="#cc787c"/>
      <path id="Path_1106" data-name="Path 1106" d="M-529.487,645.7a.266.266,0,0,1-.192-.082l-1.513-1.577-1.825-.332a.266.266,0,0,1-.213-.309.261.261,0,0,1,.309-.214l1.992.363,1.634,1.7a.264.264,0,0,1-.008.375A.265.265,0,0,1-529.487,645.7Z" fill="#cc787c"/>
      <path id="Path_1107" data-name="Path 1107" d="M-531.371,648.811a.266.266,0,0,1-.261-.219l-.462-2.588-1.853-.978a.263.263,0,0,1-.111-.357.263.263,0,0,1,.358-.111l2.084,1.1.507,2.843a.265.265,0,0,1-.215.308A.185.185,0,0,1-531.371,648.811Z" fill="#cc787c"/>
      <path id="Path_1108" data-name="Path 1108" d="M-536.4,641.028a.258.258,0,0,1-.166-.059l-1.606-1.288-.625-2.414a.266.266,0,0,1,.191-.323.268.268,0,0,1,.324.19l.581,2.244,1.467,1.177a.266.266,0,0,1,.041.373A.268.268,0,0,1-536.4,641.028Z" fill="#cc787c"/>
      <path id="Path_1109" data-name="Path 1109" d="M-537.042,642.4a.247.247,0,0,1-.1-.02l-1.719-.7-2.122.521a.264.264,0,0,1-.322-.2.268.268,0,0,1,.2-.322l2.29-.56,1.877.762a.266.266,0,0,1,.146.346A.263.263,0,0,1-537.042,642.4Z" fill="#7ee8ff"/>
      <path id="Path_1110" data-name="Path 1110" d="M-541.12,645.837a.263.263,0,0,1-.18-.07.266.266,0,0,1-.016-.375l1.952-2.128,2.234.182a.265.265,0,0,1,.243.286.261.261,0,0,1-.286.243l-1.975-.161-1.776,1.937A.268.268,0,0,1-541.12,645.837Z" fill="#7ee8ff"/>
    </g>
    <path id="Path_1111" data-name="Path 1111" d="M-565.364,639.314a.264.264,0,0,1-.171-.063l-2.283-1.932,2.292-1.762a.266.266,0,0,1,.373.048.267.267,0,0,1-.049.373l-1.77,1.362,1.779,1.506a.265.265,0,0,1,.032.374A.264.264,0,0,1-565.364,639.314Z" fill="#1e1e1e"/>
    <path id="Path_1112" data-name="Path 1112" d="M-545.08,648.159a.262.262,0,0,1-.2-.094.264.264,0,0,1,.031-.374l1.779-1.506-1.77-1.362a.265.265,0,0,1-.048-.372.262.262,0,0,1,.372-.049l2.292,1.762-2.283,1.932A.262.262,0,0,1-545.08,648.159Z" fill="#1e1e1e"/>
    <rect id="Rectangle_95" data-name="Rectangle 95" width="5.675" height="1.143" transform="translate(-560.257 641.3)" fill="#7ee8ff"/>
    <rect id="Rectangle_96" data-name="Rectangle 96" width="6.881" height="1.143" transform="translate(-553.461 641.3)" fill="#7ee8ff"/>
    <rect id="Rectangle_97" data-name="Rectangle 97" width="3.063" height="1.143" transform="translate(-562.605 645.709)" fill="#7ee8ff"/>
    <rect id="Rectangle_98" data-name="Rectangle 98" width="10.039" height="1.143" transform="translate(-558.147 645.709)" fill="#7ee8ff"/>
    <rect id="Rectangle_99" data-name="Rectangle 99" width="11.691" height="1.143" transform="translate(-564.241 636.891)" fill="#7ee8ff"/>
    <rect id="Rectangle_100" data-name="Rectangle 100" width="6.139" height="1.143" transform="translate(-551.177 636.891)" fill="#7ee8ff"/>
    <path id="Path_1113" data-name="Path 1113" d="M-547.028,648.1a.25.25,0,0,1-.076-.011.264.264,0,0,1-.178-.33l1.015-3.421a.264.264,0,0,1,.33-.179.266.266,0,0,1,.179.33l-1.016,3.421A.264.264,0,0,1-547.028,648.1Z" fill="#1e1e1e"/>
  </g>
  <path id="Path_1114" data-name="Path 1114" d="M-547.957,624.2h-.266v-2.124h.266Zm0-4.249h-.266v-2.124h.266Zm0-4.249h-.266v-2.124h.266Zm0-4.249h-.266v-2.124h.266Zm0-4.248h-.266V605.08h.266Zm0-4.249h-.266v-2.125h.266Zm0-4.249h-.266v-2.125h.266Zm0-4.249h-.266v-2.125h.266Zm0-4.249h-.266v-.554h-1.3v-.266h1.571Zm-3.7-.554h-2.125v-.266h2.125Zm-4.249,0h-2.125v-.266h2.125Zm-4.249,0h-2.125v-.266h2.125Zm-4.249,0h-2.124v-.266h2.124Zm-4.249,0h-2.124v-.266h2.124Zm-4.249,0h-2.124v-.266h2.124Z" transform="translate(749.202 -553)" fill="#fff"/>
  <path id="Path_1115" data-name="Path 1115" d="M-575.766,589.522a.745.745,0,0,0,.745.745.744.744,0,0,0,.744-.745.744.744,0,0,0-.744-.744A.745.745,0,0,0-575.766,589.522Z" transform="translate(749.202 -553)" fill="#fff"/>
  <path id="Path_1116" data-name="Path 1116" d="M-548.835,624.312a.745.745,0,0,0,.745.744.744.744,0,0,0,.744-.744.745.745,0,0,0-.744-.745A.746.746,0,0,0-548.835,624.312Z" transform="translate(749.202 -553)" fill="#fff"/>
</svg>
