<svg xmlns="http://www.w3.org/2000/svg" width="234.336" height="162.511" viewBox="0 0 234.336 162.511">
  <g id="Group_130" data-name="Group 130" transform="translate(925.719 -548.541)">
    <path id="Path_589" data-name="Path 589" d="M-701.738,664.8l-38.871,10.535-117.877,31.948-7.387,2-8.054-1.151-13.621-12.476-20.517-18.794-11.5-10.532,3.085-.685.225-.05L-767.7,632.59Z" fill="#bfbfbf"/>
    <path id="Path_590" data-name="Path 590" d="M-836.491,711.052l62.032-17.576-3.1-11.028-70.3,20.333Z" fill="#919191"/>
    <path id="Path_591" data-name="Path 591" d="M-740.609,675.339l-117.877,31.947-29.061-11.624-20.517-18.794-8.412-11.217-.191-.253s.141.071.416.2c6.048,2.922,77.213,35.918,153.524,9.258C-728.531,662.913-728.958,666.891-740.609,675.339Z" fill="#b2b2b2"/>
    <g id="Group_103" data-name="Group 103">
      <path id="Path_600" data-name="Path 600" d="M-870.367,636.32l-2.662-.762v24.477l1.958,1.472Z" fill="#515151"/>
      <path id="Path_601" data-name="Path 601" d="M-836.108,652.7l-35.042,8.8-.016-13.748,35.058-7.855Z" fill="#444"/>
      <g id="Group_97" data-name="Group 97">
        <path id="Path_602" data-name="Path 602" d="M-812.815,575l-2.618-.971-89.127,11.331,4.764,2.633Z" fill="#636363"/>
        <path id="Path_603" data-name="Path 603" d="M-812.815,640.559-901.9,659.352v-73.23L-812.815,575Z" fill="#383838"/>
        <path id="Path_604" data-name="Path 604" d="M-814.917,578.661v52.412a1.155,1.155,0,0,1-.943,1.136l-1.537.287-8.277,1.546-3.063.572-10.866,2.028-17.525,3.273-4.752.887-36.547,7.946a1.156,1.156,0,0,1-1.369-1.136V589.021a1.157,1.157,0,0,1,1.022-1.148l82.567-10.36A1.156,1.156,0,0,1-814.917,578.661Z" fill="#fff"/>
        <path id="Path_605" data-name="Path 605" d="M-901.9,586.122l-2.662-.762v72.215l2.662,1.778Z" fill="#515151"/>
        <path id="Path_606" data-name="Path 606" d="M-898.427,648.748l82.567-16.538-59.95,9.18Z" fill="#fff"/>
        <g id="Group_96" data-name="Group 96">
          <path id="Path_607" data-name="Path 607" d="M-817.4,632.5l-8.278,1.674-3.256.656-10.271,2.046-18.582,3.708-4.1.81-.056-15.261,44.456-7.776Z" fill="#7ee8ff"/>
          <path id="Path_608" data-name="Path 608" d="M-848.564,627.444l9.363,9.428-18.582,3.708Z" fill="#fff"/>
          <path id="Path_609" data-name="Path 609" d="M-825.674,634.17l-3.256.656,1.687-3.286Z" fill="#fff"/>
          <ellipse id="Ellipse_131" data-name="Ellipse 131" cx="2.02" cy="2.525" rx="2.02" ry="2.525" transform="translate(-836.462 625.006)" fill="#fff"/>
        </g>
      </g>
      <path id="Path_610" data-name="Path 610" d="M-814.917,578.661v12.582l-84.879,12.64V589.021a1.157,1.157,0,0,1,1.022-1.148l82.567-10.36A1.156,1.156,0,0,1-814.917,578.661Z" fill="#7ee8ff"/>
      <path id="Path_611" data-name="Path 611" d="M-894.1,592.071v.217a.752.752,0,0,0,.85.751l45-5.9a.752.752,0,0,0,.655-.741h0a.752.752,0,0,0-.847-.751l-44.995,5.678A.753.753,0,0,0-894.1,592.071Z" fill="#fff"/>
      <path id="Path_612" data-name="Path 612" d="M-864.928,603.517v.217a.724.724,0,0,0,.85.722l45.007-7.44a.784.784,0,0,0,.654-.763h0a.724.724,0,0,0-.846-.723l-45.005,7.223A.786.786,0,0,0-864.928,603.517Z" fill="#c6c4c4"/>
      <path id="Path_613" data-name="Path 613" d="M-864.749,601.646v.119c0,.249.4.4.852.331l44.55-7.188c.373-.061.652-.259.653-.464h0c0-.248-.4-.4-.849-.332l-44.549,7.07C-864.467,601.242-864.747,601.441-864.749,601.646Z" fill="#c6c4c4"/>
      <g id="Group_101" data-name="Group 101">
        <g id="Group_98" data-name="Group 98">
          <path id="Path_614" data-name="Path 614" d="M-896.442,607.444V628.15l25.027-4.938-.112-19.976Z" fill="#f5f5f5"/>
          <path id="Path_615" data-name="Path 615" d="M-896.442,628.15l8.249-16.666,5.724,8.249,5.219-5.555,5.836,9.034Z" fill="#e0e0e0"/>
          <ellipse id="Ellipse_132" data-name="Ellipse 132" cx="2.02" cy="2.525" rx="2.02" ry="2.525" transform="translate(-883.817 607.107)" fill="#e0e0e0"/>
        </g>
        <g id="Group_99" data-name="Group 99">
          <path id="Path_616" data-name="Path 616" d="M-896.442,629.512v11.466l14.269-2.961V626.8Z" fill="#f5f5f5"/>
          <path id="Path_617" data-name="Path 617" d="M-896.442,640.978l4.724-9.369,3.278,4.574,2.989-3.319,3.278,5.153Z" fill="#e0e0e0"/>
          <ellipse id="Ellipse_133" data-name="Ellipse 133" cx="1.449" cy="1.155" rx="1.449" ry="1.155" transform="translate(-889.322 631.732) rotate(-85.39)" fill="#e0e0e0"/>
        </g>
        <g id="Group_100" data-name="Group 100">
          <path id="Path_618" data-name="Path 618" d="M-881.292,626.618v11.217l13.959-3.065V623.8Z" fill="#f5f5f5"/>
          <path id="Path_619" data-name="Path 619" d="M-881.292,637.835l4.622-9.3,3.207,4.384,2.924-3.329,3.207,5.175Z" fill="#e0e0e0"/>
          <ellipse id="Ellipse_134" data-name="Ellipse 134" cx="1.422" cy="1.126" rx="1.422" ry="1.126" transform="translate(-874.384 628.504) rotate(-82.699)" fill="#e0e0e0"/>
        </g>
      </g>
      <g id="Group_102" data-name="Group 102">
        <path id="Path_620" data-name="Path 620" d="M-864.1,608.962v14.032a.754.754,0,0,0,.886.741l44.864-7.979a.753.753,0,0,0,.621-.742V601.553a.753.753,0,0,0-.876-.743l-44.864,7.409A.754.754,0,0,0-864.1,608.962Z" fill="#e0e0e0"/>
        <path id="Path_621" data-name="Path 621" d="M-862.5,608.379l1.011-2.092a.738.738,0,0,1,.549-.409l6.386-1.027a.741.741,0,0,1,.655.221l2.34,2.466Z" fill="#7ee8ff"/>
        <path id="Path_622" data-name="Path 622" d="M-863.678,609.215v14.031a.753.753,0,0,0,.885.742l44.865-7.98a.753.753,0,0,0,.621-.742V601.8a.753.753,0,0,0-.876-.743l-44.864,7.41A.753.753,0,0,0-863.678,609.215Z" fill="#7ee8ff"/>
        <path id="Path_623" data-name="Path 623" d="M-862.619,612.108l1.551-2.585,40.672-6.635,1.723,2.068-2.24-1.292-39.465,6.376Z" fill="#7ee8ff"/>
      </g>
    </g>
    <g id="Group_106" data-name="Group 106">
      <g id="Group_104" data-name="Group 104">
        <path id="Path_624" data-name="Path 624" d="M-869.99,675.7v1.725l15.885-4.73-4.027-.447Z" fill="#ebebeb"/>
        <path id="Path_625" data-name="Path 625" d="M-880.822,663.106l49.539-12.24,10.816,10.706-49.486,14.194Z" fill="#fff"/>
        <path id="Path_626" data-name="Path 626" d="M-880.822,663.106v1.663l10.832,12.657V675.7Z" fill="#ebebeb"/>
      </g>
      <g id="Group_105" data-name="Group 105">
        <path id="Path_627" data-name="Path 627" d="M-877.871,663.352l5.295-1.406,1.118,1.247-5.32,1.5Z" fill="#ebebeb"/>
        <path id="Path_628" data-name="Path 628" d="M-876.4,665.078l5.295-1.406,1.177,1.183-5.315,1.566Z" fill="#ebebeb"/>
        <path id="Path_629" data-name="Path 629" d="M-874.824,666.783l5.227-1.6,1.158,1.21-5.313,1.693Z" fill="#ebebeb"/>
        <path id="Path_630" data-name="Path 630" d="M-873.294,668.461l5.227-1.6,1.215,1.144-5.369,1.757Z" fill="#ebebeb"/>
      </g>
    </g>
    <g id="Group_114" data-name="Group 114">
      <path id="Path_631" data-name="Path 631" d="M-776.117,671.549l.025,1.255a1.743,1.743,0,0,1-1.216,1.7l-54.73,17.313-2.176-1.836,5.589-2.407Z" fill="#172123"/>
      <path id="Path_632" data-name="Path 632" d="M-863.878,660.43l58.049-14.983a1.146,1.146,0,0,1,1.044.25l28.291,24.9a1.146,1.146,0,0,1-.417,1.955l-60.842,18.908a1.146,1.146,0,0,1-1.2-.335l-25.5-28.823A1.147,1.147,0,0,1-863.878,660.43Z" fill="#243235"/>
      <path id="Path_633" data-name="Path 633" d="M-779.653,670.942l-32.761,10.182L-832.94,687.5l-4.768,1.482-23.683-26.772,55.533-14.333Z" fill="#fff"/>
      <g id="Group_112" data-name="Group 112">
        <g id="Group_107" data-name="Group 107">
          <path id="Path_634" data-name="Path 634" d="M-844.485,660.426l2.327,2.1c.335.3.274.639-.136.75l-5.5,1.5a1.613,1.613,0,0,1-1.348-.345l-2.328-2.1c-.335-.3-.274-.638.136-.75l.034-.009-.082-.314,1.043-.284.481.2,4.019-1.1A1.62,1.62,0,0,1-844.485,660.426Z" fill="#d8d8d8"/>
          <path id="Path_635" data-name="Path 635" d="M-851.124,662.244l.011-.269c0-.061.051-.108.133-.13l5.472-1.495a.571.571,0,0,1,.334.029l.417.155-.5-.089a.517.517,0,0,0-.216,0l-5.38,1.469a.19.19,0,0,0-.115.075Z" fill="#bcbcbc"/>
        </g>
        <g id="Group_108" data-name="Group 108">
          <path id="Path_636" data-name="Path 636" d="M-835.579,657.995l2.327,2.1c.335.3.273.638-.137.75l-5.495,1.5a1.618,1.618,0,0,1-1.349-.344l-2.327-2.1c-.335-.3-.274-.638.136-.75l.033-.01-.082-.313,1.043-.285.482.2,4.019-1.1A1.618,1.618,0,0,1-835.579,657.995Z" fill="#d8d8d8"/>
          <path id="Path_637" data-name="Path 637" d="M-842.218,659.812l.011-.269c0-.06.051-.108.133-.13l5.472-1.494a.57.57,0,0,1,.334.028l.417.155-.5-.088a.506.506,0,0,0-.217,0l-5.379,1.469a.185.185,0,0,0-.115.074Z" fill="#bcbcbc"/>
        </g>
        <g id="Group_109" data-name="Group 109">
          <path id="Path_638" data-name="Path 638" d="M-826.674,655.563l2.327,2.1c.335.3.274.638-.136.75l-5.5,1.5a1.616,1.616,0,0,1-1.348-.345l-2.327-2.1c-.335-.3-.275-.638.135-.75l.034-.009-.082-.314,1.043-.285.482.2,4.019-1.1A1.615,1.615,0,0,1-826.674,655.563Z" fill="#d8d8d8"/>
          <path id="Path_639" data-name="Path 639" d="M-833.312,657.38l.011-.269c0-.06.051-.107.132-.13l5.472-1.494a.578.578,0,0,1,.334.028l.417.156-.5-.089a.5.5,0,0,0-.216,0l-5.379,1.469a.194.194,0,0,0-.116.074Z" fill="#bcbcbc"/>
        </g>
        <g id="Group_110" data-name="Group 110">
          <path id="Path_640" data-name="Path 640" d="M-817.768,653.131l2.327,2.1c.335.3.273.638-.137.75l-5.495,1.5a1.615,1.615,0,0,1-1.349-.345l-2.327-2.1c-.335-.3-.274-.638.136-.75l.034-.009-.082-.314,1.043-.284.481.2,4.019-1.1A1.62,1.62,0,0,1-817.768,653.131Z" fill="#d8d8d8"/>
          <path id="Path_641" data-name="Path 641" d="M-824.407,654.948l.011-.268c0-.061.051-.108.133-.13l5.472-1.495a.579.579,0,0,1,.334.028l.417.156-.5-.089a.522.522,0,0,0-.217,0l-5.379,1.469a.193.193,0,0,0-.115.074Z" fill="#bcbcbc"/>
        </g>
        <g id="Group_111" data-name="Group 111">
          <path id="Path_642" data-name="Path 642" d="M-808.863,650.7l2.327,2.1c.336.3.274.639-.136.751l-5.495,1.5a1.615,1.615,0,0,1-1.349-.345l-2.327-2.1c-.335-.3-.274-.638.136-.75l.033-.009-.082-.313,1.043-.285.482.2,4.019-1.1A1.618,1.618,0,0,1-808.863,650.7Z" fill="#d8d8d8"/>
          <path id="Path_643" data-name="Path 643" d="M-815.5,652.517l.011-.269c0-.06.051-.108.133-.13l5.472-1.494a.571.571,0,0,1,.334.028l.416.155-.5-.088a.49.49,0,0,0-.217,0l-5.379,1.468a.19.19,0,0,0-.115.075Z" fill="#bcbcbc"/>
        </g>
      </g>
      <path id="Path_644" data-name="Path 644" d="M-812.414,681.124l-19.75,6.051-14.854-16.5a1.85,1.85,0,0,1,.871-3.018l14.608-4.136a1.853,1.853,0,0,1,1.806.465Z" fill="#c6c4c4"/>
      <g id="Group_113" data-name="Group 113">
        <path id="Path_645" data-name="Path 645" d="M-829.117,666.826l-14.58,4.017a.831.831,0,0,1-.742-.172l-.048-.048c-.162-.163-.093-.35.154-.418l14.58-4.017a.837.837,0,0,1,.742.172l.048.048C-828.8,666.571-828.87,666.758-829.117,666.826Z" fill="#d8d8d8"/>
        <path id="Path_646" data-name="Path 646" d="M-827.686,668.263l-14.58,4.017a.836.836,0,0,1-.742-.172l-.048-.048c-.163-.163-.094-.35.154-.418l14.58-4.017a.831.831,0,0,1,.742.172l.048.047C-827.37,668.008-827.439,668.2-827.686,668.263Z" fill="#d8d8d8"/>
        <path id="Path_647" data-name="Path 647" d="M-826.255,669.7l-14.581,4.017a.838.838,0,0,1-.742-.172l-.047-.048c-.163-.163-.094-.35.154-.419l14.58-4.017a.838.838,0,0,1,.742.172l.048.048C-825.939,669.444-826.008,669.632-826.255,669.7Z" fill="#d8d8d8"/>
        <path id="Path_648" data-name="Path 648" d="M-824.825,671.137l-14.58,4.017a.838.838,0,0,1-.742-.172l-.048-.048c-.162-.163-.093-.351.154-.419l14.58-4.017a.839.839,0,0,1,.743.172l.047.048C-824.508,670.881-824.577,671.069-824.825,671.137Z" fill="#d8d8d8"/>
        <path id="Path_649" data-name="Path 649" d="M-823.394,672.574l-14.58,4.017a.837.837,0,0,1-.742-.172l-.048-.048c-.162-.163-.093-.351.154-.419l14.58-4.017a.836.836,0,0,1,.742.172l.048.048C-823.077,672.318-823.146,672.506-823.394,672.574Z" fill="#d8d8d8"/>
      </g>
    </g>
    <g id="Group_116" data-name="Group 116">
      <path id="Path_650" data-name="Path 650" d="M-780.034,548.541l-27.558,93.908,77.784,14.359,26.469-96.669Z" fill="#fff"/>
      <g id="Group_115" data-name="Group 115">
        <path id="Path_651" data-name="Path 651" d="M-804.249,639.181l.568-1.936q.776-2.645,1.553-5.291,1.168-3.979,2.336-7.961l2.888-9.838,3.249-11.069,3.369-11.48q1.653-5.629,3.3-11.259,1.5-5.109,3-10.218l2.505-8.532,1.775-6.05c.283-.963.56-1.928.848-2.889a1.613,1.613,0,0,1,1.818-1.213c.317.041.633.093.949.139l5.271.774,8.671,1.273,10.894,1.6,11.777,1.729,11.51,1.689,9.936,1.459,7.083,1.04c1.009.148,2.033.256,3.035.446a1.582,1.582,0,0,1,1.225,2.054c-.085.317-.174.634-.261.951l-1.218,4.453q-.988,3.617-1.979,7.233l-2.552,9.332-2.951,10.785q-1.572,5.75-3.146,11.5-1.567,5.731-3.136,11.464l-2.961,10.825-2.571,9.4q-1.006,3.676-2.012,7.353l-1.244,4.548c-.307,1.12-.552,2.546-2.156,2.271-.957-.163-1.911-.343-2.866-.515l-6.9-1.241-9.684-1.743-11.357-2.043-11.744-2.113-11.035-1.986-9.042-1.626-5.932-1.068c-1.249-.224-3.3-.327-2.818-2.245a.372.372,0,0,0-.718-.2,2.321,2.321,0,0,0,1.842,2.89c.427.082.856.154,1.283.231l5.786,1.041,9.052,1.629,11.087,1.994,11.89,2.14,11.416,2.054,9.813,1.765,6.928,1.247c.937.168,1.873.342,2.811.505a2.342,2.342,0,0,0,2.761-1.7c.085-.3.164-.6.246-.9l1.206-4.408q.992-3.627,1.984-7.252,1.292-4.721,2.582-9.44,1.49-5.441,2.977-10.881l3.174-11.6,3.174-11.6q1.488-5.441,2.977-10.882,1.292-4.719,2.582-9.439l1.991-7.278q.6-2.191,1.2-4.383c.082-.3.167-.6.246-.9a2.321,2.321,0,0,0-1.725-2.935c-.92-.182-1.868-.274-2.8-.41l-7.014-1.03-9.944-1.46-11.582-1.7-11.883-1.745-11-1.615-8.776-1.288-5.262-.773-.911-.133a2.348,2.348,0,0,0-2.7,1.669c-.271.885-.521,1.777-.782,2.665q-.875,2.98-1.75,5.961l-2.5,8.505q-1.51,5.149-3.022,10.3l-3.314,11.289q-1.707,5.816-3.413,11.629l-3.279,11.17q-1.461,4.981-2.923,9.961l-2.348,8-1.547,5.271-.541,1.841A.372.372,0,0,0-804.249,639.181Z" fill="#dbdbdb"/>
      </g>
      <path id="Path_652" data-name="Path 652" d="M-776.544,557.518l-2.493,8.631,18.03,2.685,2.3-8.631Z" fill="#ebebeb"/>
      <path id="Path_653" data-name="Path 653" d="M-797.067,627.718l-2.493,8.631,18.03,3.261,2.3-8.631Z" fill="#ebebeb"/>
      <path id="Path_654" data-name="Path 654" d="M-788.628,618.128l-2.493,8.631,18.03,3.261,2.3-8.631Z" fill="#ebebeb"/>
      <path id="Path_655" data-name="Path 655" d="M-776.353,631.49l-2.493,8.631,18.03,3.261,2.3-8.631Z" fill="#ebebeb"/>
      <path id="Path_656" data-name="Path 656" d="M-782.6,585.321l-7.51,26.033a2.026,2.026,0,0,0,1.6,2.558l57.5,10.032a2.026,2.026,0,0,0,2.31-1.488l7.026-27.1a2.026,2.026,0,0,0-1.647-2.511l-57.019-8.965A2.025,2.025,0,0,0-782.6,585.321Z" fill="none" stroke="#ebebeb" stroke-miterlimit="10" stroke-width="0.892"/>
    </g>
    <path id="Path_657" data-name="Path 657" d="M-697.51,667.074s-3.03-34-17.339-43.768c0,0-5.387-4.714-18.181-4.882l-2.861-4.479a2.723,2.723,0,0,0-2.9-1.189c-.562.128-1.235.29-2,.489l-2.392-7.846c1.138-2.8,3.9-10.513,5.782-13.578a8.888,8.888,0,0,0,2.585-5.691s3.308-12.68-3.842-17.73-13.233-1.234-13.233-1.234-5.229-5.387-11.206-3.815-6.189,2.8-9.924,3.7c0,0-13.553.224-12.806,7.967,0,0-3.415,2.469-2.988,6.4.411,3.783,4.286,4.651,7.431,4.309l1.553,12.032s-2.205,9.219-1.531,9.556a20.7,20.7,0,0,0,3.535.673s3.556,10.037,6.631,10.8c1.473.365,4.807-.344,8.118-1.5l2.056,5.1c-.875.649-1.725,1.334-2.538,2.061a4.7,4.7,0,0,0-1.446,2.44l-1.36,5.85s-18.013,7.07-19.023,17.676c-.063.664-.1,1.4-.127,2.182l-13.833-6.19-.746-1.135a6.383,6.383,0,0,0-1.7-1.74h0a6.363,6.363,0,0,0-1.433-.741c-1.147-.553-4.905-2.38-7.333-3.734l4.115-4.64a8.376,8.376,0,0,0,1.921-3.791l.367-1.706a.665.665,0,0,0-1.027-.591.688.688,0,0,0-.13.113l-8.057,8.95a1.905,1.905,0,0,0-1.8.01l-8.5,3.7-.094,1.626c-.863.168-2.258.544-2.431,1.235a70.912,70.912,0,0,0,.113,7.544l-1.543,1.714-1.094,3.7,3.282-1.094,1.019-1.149a1.4,1.4,0,0,0,.832-.618,2.528,2.528,0,0,0,.281-.637l1.555-1.753-.237,1.38s3.2,3.114,4.461,2.188c1.033-.758-.021-2.419-.437-2.995a13.228,13.228,0,0,0,2.286-.379,15.3,15.3,0,0,0,7.155,5.058,9.61,9.61,0,0,0,7.49-.674h0s4.628,2.02,6.9,4.208c1.891,1.821,7.741,7.193,9.655,8.948,1.087,9.893,2.623,19.219,2.623,19.219a20.529,20.529,0,0,0-.6,5.612,16.376,16.376,0,0,0-3.173.642c-4.351,1.261-13.955.145-18.5-.493a7.8,7.8,0,0,0-4.8.866c-5.08-.884-20.3-3.87-23.928-8.479a6.914,6.914,0,0,0-2.087-6.951l2.273-.849.505-1.767-15.545-17.436c.009-2.208-.921-3.008-1.657-3.294a.784.784,0,0,0-.947.372l-.054-.06c.292-2.891-.78-3.861-1.608-4.183a.83.83,0,0,0-1.066.665l-.094.412-1.162-1.3-.448.13a2.7,2.7,0,0,0-1.606-2.429.83.83,0,0,0-1.066.665l-.589,2.572c-.525-2.128-1.735-2.7-2.61-2.824a.892.892,0,0,0-1.013.873l-.036,3.156-3.629,1.055-.954,1.6,5.239,6.014a104.111,104.111,0,0,1,.039,10.532,6.823,6.823,0,0,0,1.353,4.522c1.524,2.031,3.792,4.988,5.151,6.452l.01.01a9.127,9.127,0,0,0,5.292,3.524c5.05,1.431,8.9,5.782,8.9,5.782s8.922,9.764,11.447,11.11h50.428l.017-.024a173.982,173.982,0,0,0,22.122-2.076l-.012.08c.017-.028.033-.057.05-.086C-734.636,699.593-705.081,690.619-697.51,667.074Z" fill="#cecece" opacity="0.63" style="mix-blend-mode: multiply;isolation: isolate"/>
    <g id="Group_122" data-name="Group 122">
      <g id="Group_119" data-name="Group 119">
        <path id="Path_658" data-name="Path 658" d="M-765.6,613.464l4.209,10.437s15.319-.673,20.032-9.09l-4.208-13.8Z" fill="#f7ab86"/>
        <path id="Path_659" data-name="Path 659" d="M-782.773,583.948l1.7,13.17s-2.205,9.22-1.531,9.556a20.622,20.622,0,0,0,3.535.674s3.556,10.037,6.631,10.8c2.584.639,10.894-2.024,14.761-4.617,5.74-3.849,9.153-9.68,9.258-11.109.5-6.848,3.018-26.047-5.231-29.751S-779.574,565.431-782.773,583.948Z" fill="#ffba94"/>
        <ellipse id="Ellipse_135" data-name="Ellipse 135" cx="6.377" cy="5.81" rx="6.377" ry="5.81" transform="translate(-775.825 603.967) rotate(-63.938)" fill="#ffba94"/>
        <path id="Path_660" data-name="Path 660" d="M-770.193,585.379s4.827,2.244,4.63,8.865a8.419,8.419,0,0,0,7.957,3.478s3.93,7.743,9.136,8.866c0,0,2.947.336,3.634-.9s4.492-12.344,6.624-15.149l-18.706-18.516-11.493,8.416Z" fill="#183a49"/>
        <path id="Path_661" data-name="Path 661" d="M-774.263,566.414s-13.553.225-12.806,7.968c0,0-3.415,2.468-2.988,6.4s4.589,4.713,7.79,4.264,5.976,4.489,9.818,2.244,5.763-7.181,9.071-4.152,4.162,13.915,13.873,12.905,13.447-7.069,13.447-10.548c0,0,3.308-12.68-3.842-17.73s-13.233-1.235-13.233-1.235-5.229-5.386-11.205-3.815S-770.528,565.516-774.263,566.414Z" fill="#183a49"/>
        <g id="Group_117" data-name="Group 117">
          <path id="Path_662" data-name="Path 662" d="M-776.594,595.215a1.559,1.559,0,0,1-1.231,1.794,1.559,1.559,0,0,1-1.466-1.608,1.56,1.56,0,0,1,1.231-1.795A1.56,1.56,0,0,1-776.594,595.215Z" fill="#183a49"/>
        </g>
        <g id="Group_118" data-name="Group 118">
          <path id="Path_663" data-name="Path 663" d="M-760.627,593.156s.468-6.489,6.55-4.362,1.286,21.381-5.263,14.041Z" fill="#ffba94"/>
          <path id="Path_664" data-name="Path 664" d="M-755.8,599.021a.545.545,0,0,1-.373-.117l-2.379-1.863,2.791-3.473a.552.552,0,0,1,.768-.084.532.532,0,0,1,.093.755l-2.118,2.635,1.522,1.193a.531.531,0,0,1,.091.755A.541.541,0,0,1-755.8,599.021Z" fill="#ff806d"/>
        </g>
        <path id="Path_665" data-name="Path 665" d="M-779.676,590.155a3.258,3.258,0,0,0,1.237.375c.454.077.908.165,1.3.254s.841.208,1.283.336a3.236,3.236,0,0,0,1.275.2c.369-.059.6-.416.308-.986a3.64,3.64,0,0,0-2.428-1.582,3.562,3.562,0,0,0-2.849.376C-780.044,589.518-779.985,589.941-779.676,590.155Z" fill="#183a49"/>
        <path id="Path_666" data-name="Path 666" d="M-770.256,607.816l-6.635,1.446S-772.938,614.108-770.256,607.816Z" fill="#ff806d"/>
      </g>
      <path id="Path_667" data-name="Path 667" d="M-837.62,678.162a7.047,7.047,0,0,1,3.517,7.969l-5.031,1.289-3.619-5.3,1.935-2.273Z" fill="#f7ab86"/>
      <path id="Path_668" data-name="Path 668" d="M-808.515,694.885s-21.211-3.2-25.588-8.754c0,0-5.555-2.02-7.407,7.238,0,0,8.923,9.764,11.448,11.111h14.814Z" fill="#ffba94"/>
      <path id="Path_669" data-name="Path 669" d="M-778.128,697.011a2.594,2.594,0,0,0-1-1.184c-1.284-.8-1.142-3.5-7.743-1.591-4.351,1.262-13.955.146-18.5-.493a7.8,7.8,0,0,0-5.642,1.392,28.527,28.527,0,0,0-7.941,9.345h39.317S-776.671,700.421-778.128,697.011Z" fill="#7ee8ff"/>
      <path id="Path_670" data-name="Path 670" d="M-802.273,655.608a9.609,9.609,0,0,1-7.49.673c-4.208-1.346-6.228-4.039-7.743-5.723s-1.851.842-1.851.842,1.851,2.272.589,3.2-4.461-2.188-4.461-2.188l.505-2.946,5.723-1.346,13.718,2.188Z" fill="#f7ab86"/>
      <path id="Path_671" data-name="Path 671" d="M-824.323,641.974s-2.861.337-3.114,1.347.253,10.435.253,10.435,1.515.926,2.356-.336.842-6.144.842-6.144Z" fill="#f7ab86"/>
      <path id="Path_672" data-name="Path 672" d="M-805.556,644.078l1.431-1.767s-7.574-3.619-9.426-4.965-2.861-.589-2.861-.589l-8.5,3.7-.505,8.752Z" fill="#ffba94"/>
      <g id="Group_120" data-name="Group 120">
        <path id="Path_673" data-name="Path 673" d="M-805.4,628.275l-.368,1.7a8.378,8.378,0,0,1-1.92,3.792l-18.993,21.415-3.282,1.094,1.094-3.7,22.311-24.781a.726.726,0,0,1,.13-.114A.666.666,0,0,1-805.4,628.275Z" fill="#273238"/>
        <path id="Path_674" data-name="Path 674" d="M-805.4,628.275l-.368,1.7a8.378,8.378,0,0,1-1.92,3.792l-18.993,21.415-3.282,1.094,2.777-2.524S-808,632.885-806.9,630.445a5.148,5.148,0,0,0,.476-2.762A.666.666,0,0,1-805.4,628.275Z" fill="#334247"/>
      </g>
      <g id="Group_121" data-name="Group 121">
        <path id="Path_675" data-name="Path 675" d="M-785.1,669.326s-7.995-7.322-10.267-9.51-6.9-4.208-6.9-4.208a13.025,13.025,0,0,1-1.6-2.609s-6.06.926-10.6-2.609c0,0-6.312,2.946-9.678-.252,0,0-.726-1.228.96-2.048a6.211,6.211,0,0,1,1.564-.477c3.619-.673,12.624-5.891,13.718-6.059a9.893,9.893,0,0,1,2.649.357,6.349,6.349,0,0,1,2.227.975h0a6.385,6.385,0,0,1,1.7,1.74l.747,1.135,15.232,6.817Z" fill="#ffba94"/>
        <path id="Path_676" data-name="Path 676" d="M-803.036,642.886l-2.2-.2a9.644,9.644,0,0,0-5.253,1.021c-1.4.719-3.02,1.556-3.793,1.986a36.06,36.06,0,0,1-5.33,1.907l-3.579.488a6.211,6.211,0,0,1,1.564-.477c3.619-.673,12.624-5.891,13.718-6.059a9.893,9.893,0,0,1,2.649.357A6.349,6.349,0,0,1-803.036,642.886Z" fill="#f7ab86"/>
      </g>
      <path id="Path_677" data-name="Path 677" d="M-767.608,632.093s-18.012,7.071-19.022,17.676,3.535,38.214,3.535,38.214-1.01,4.04-.505,6.228a32.442,32.442,0,0,0,2.356,5.724v4.545s70.2.168,82.487-38.045c0,0-3.03-34.005-17.339-43.769,0,0-5.387-4.713-18.181-4.882l-25.082,6.566Z" fill="#7ee8ff"/>
      <path id="Path_678" data-name="Path 678" d="M-740.036,612.117c-4.585,1.046-16.537,4.338-24.766,11.686a4.706,4.706,0,0,0-1.446,2.441l-1.36,5.849,4.882-2.525s21.211-3.7,28.449-11.784l-2.861-4.479A2.72,2.72,0,0,0-740.036,612.117Z" fill="#7ee8ff"/>
      <path id="Path_679" data-name="Path 679" d="M-734.277,617.784s-6.4,10.606-28.449,11.784C-762.726,629.568-740,625.023-734.277,617.784Z" fill="#62dff4"/>
      <path id="Path_680" data-name="Path 680" d="M-782.927,648.254s20.033,3.2,28.45,21.211c0,0,2.525,23.568-3.031,32.995,0,0,3.495-23.677.337-33.5C-761.716,654.819-782.927,648.254-782.927,648.254Z" fill="#62dff4"/>
      <path id="Path_681" data-name="Path 681" d="M-862.278,662.172a106.758,106.758,0,0,1,.061,10.908,6.813,6.813,0,0,0,1.353,4.522c1.523,2.031,3.791,4.988,5.15,6.451,2.189,2.357,3.619-6.059,3.619-6.059l-.673-6.144Z" fill="#f7ab86"/>
      <path id="Path_682" data-name="Path 682" d="M-862.933,655.646l.056-4.922a.892.892,0,0,1,1.013-.874c1.075.15,2.653.982,2.849,4.53a.891.891,0,0,1-.446.822l-2.136,1.227A.891.891,0,0,1-862.933,655.646Z" fill="#f7ab86"/>
      <path id="Path_683" data-name="Path 683" d="M-859.769,654.922l1.1-4.819a.831.831,0,0,1,1.066-.666c.9.351,2.091,1.466,1.5,4.985a.929.929,0,0,1-.563.722l-2.117.8A.8.8,0,0,1-859.769,654.922Z" fill="#f7ab86"/>
      <path id="Path_684" data-name="Path 684" d="M-855.393,657.446l1.1-4.819a.831.831,0,0,1,1.066-.665c.9.35,2.091,1.466,1.5,4.985a.929.929,0,0,1-.563.722l-2.116.8A.8.8,0,0,1-855.393,657.446Z" fill="#f7ab86"/>
      <path id="Path_685" data-name="Path 685" d="M-852.784,661.318l1.1-4.819a.831.831,0,0,1,1.066-.666c.9.351,2.091,1.466,1.5,4.985a.929.929,0,0,1-.563.722l-2.117.8A.8.8,0,0,1-852.784,661.318Z" fill="#f7ab86"/>
      <path id="Path_686" data-name="Path 686" d="M-866.542,654.935l-.954,1.6,18.767,21.544,1.346-2.777Z" fill="#384951"/>
      <path id="Path_687" data-name="Path 687" d="M-833.412,676.563l-.5,1.767-7.658,2.861-.5-2.272Z" fill="#384951"/>
      <path id="Path_688" data-name="Path 688" d="M-866.542,654.935l11-3.2,22.133,24.827-10.772,3.7Z" fill="#273238"/>
      <path id="Path_689" data-name="Path 689" d="M-865.536,655.226l9.807-2.852,21.336,23.933-9.62,3.307Z" fill="#fff"/>
      <path id="Path_690" data-name="Path 690" d="M-840.4,683.969s.842-5.891-3.114-8.5-8.92-2.609-9.509-4.544c0,0,4.039-7.322-.505-7.659,0,0-3.451,5.891-4.629,6.649l1.767,12.792s.926,3.45,5.975,4.881,8.9,5.781,8.9,5.781l4.227-4.771Z" fill="#ffba94"/>
      <path id="Path_691" data-name="Path 691" d="M-710.459,637.757s1.907,31.238-16.215,46.5C-726.674,684.256-710.459,661.841-710.459,637.757Z" fill="#7ee8ff"/>
      <path id="Path_692" data-name="Path 692" d="M-783.347,693.7s5.934-1.351,11.121,5.088C-772.226,698.785-778.908,694.333-783.347,693.7Z" fill="#c92b49"/>
      <path id="Path_693" data-name="Path 693" d="M-783.562,694.367s3.906,1.186,4.361,7.1C-779.2,701.467-781.28,696.309-783.562,694.367Z" fill="#c92b49"/>
    </g>
    <g id="Group_125" data-name="Group 125">
      <g id="Group_123" data-name="Group 123">
        <path id="Path_694" data-name="Path 694" d="M-907.278,671.192l26.543-2.964a.957.957,0,0,1,.969.567l12.155,26.371a1.026,1.026,0,0,1-.727,1.454l-35.762,5.567a.977.977,0,0,1-1.1-.9l-2.936-28.973A1.006,1.006,0,0,1-907.278,671.192Z" fill="#c43b3b"/>
        <path id="Path_695" data-name="Path 695" d="M-907.542,670.541-881,667.577a.958.958,0,0,1,.97.567l12.155,26.371a1.026,1.026,0,0,1-.727,1.454l-35.762,5.567a.977.977,0,0,1-1.1-.9l-2.936-28.973A1.006,1.006,0,0,1-907.542,670.541Z" fill="#7ee8ff"/>
      </g>
      <path id="Path_696" data-name="Path 696" d="M-906.331,672.12l24.931-2.937,11.123,24.913-33.081,5.064Z" fill="#fff"/>
      <g id="Group_124" data-name="Group 124">
        <path id="Path_697" data-name="Path 697" d="M-888.219,669.715l-.765,1.433a.278.278,0,0,1-.213.153l-9.049,1.015a.268.268,0,0,1-.192-.054l-1.6-1.108a.3.3,0,0,1-.03-.436.261.261,0,0,1,.166-.084l11.413-1.341a.258.258,0,0,1,.23.092A.3.3,0,0,1-888.219,669.715Z" fill="#d8d8d8"/>
        <path id="Path_698" data-name="Path 698" d="M-888.256,669.385l-.725,1.358a.278.278,0,0,1-.213.153l-9.049,1.015a.267.267,0,0,1-.192-.054l-1.6-1.108a.2.2,0,0,1-.033-.031.261.261,0,0,1,.166-.084l11.413-1.341A.258.258,0,0,1-888.256,669.385Z" fill="#ebebeb"/>
      </g>
    </g>
    <path id="Path_699" data-name="Path 699" d="M-904.9,674.987l13.169-1.662,2.429,7.927-14.576,1.918Z" fill="#e5e5e5"/>
    <path id="Path_700" data-name="Path 700" d="M-901.2,684.193l12.338-1.662,2.685,7.927-14,1.918Z" fill="#e5e5e5"/>
    <g id="Group_126" data-name="Group 126">
      <path id="Path_701" data-name="Path 701" d="M-890.967,673.879l9.973-1.236.17.384-9.973,1.3Z" fill="#e5e5e5"/>
      <path id="Path_702" data-name="Path 702" d="M-890.69,674.6l10.037-1.236.17.384-10.037,1.3Z" fill="#e5e5e5"/>
      <path id="Path_703" data-name="Path 703" d="M-890.371,675.413l10.1-1.236.17.384-10.1,1.3Z" fill="#e5e5e5"/>
    </g>
    <path id="Path_704" data-name="Path 704" d="M-888.922,678.119l4.091,12.082,11.124-1.726-5.37-11.7Z" fill="#e5e5e5"/>
    <path id="Path_705" data-name="Path 705" d="M-698.664,666.844c-12.529,25.428-38.477,40.15-129.183,37.43s-97.419-55.131-97.86-77.211,11.514-61.968,56.967-56.525c8.272.99,15.33,3.254,21.678,3.612a65.28,65.28,0,0,0,35.442-8.213c17.915-9.979,34.62-13.189,52.619-6.44a44.83,44.83,0,0,1,10.034,5.265c3.787-1.044,8.206-1.109,11.565,2.251,3.962,3.961,4.012,9.078,3.234,12.922,5.465,7.084,10.407,14,18.3,18.012C-688.491,611.862-686.135,641.416-698.664,666.844Z" fill="none"/>
  </g>
</svg>
