<svg xmlns="http://www.w3.org/2000/svg" xmlns:xlink="http://www.w3.org/1999/xlink" width="55" height="55" viewBox="0 0 55 55">
  <defs>
    <clipPath id="clip-path">
      <rect id="Rectangle_110" data-name="Rectangle 110" width="55" height="55" rx="5.016" transform="translate(-289.471 789.065)" fill="#fc6"/>
    </clipPath>
  </defs>
  <g id="Group_219" data-name="Group 219" transform="translate(289.471 -789.065)">
    <g id="Group_217" data-name="Group 217">
      <g id="Group_216" data-name="Group 216">
        <g id="Group_215" data-name="Group 215">
          <rect id="Rectangle_109" data-name="Rectangle 109" width="55" height="55" rx="5.016" transform="translate(-289.471 789.065)" fill="#fc6"/>
          <g id="Group_214" data-name="Group 214" clip-path="url(#clip-path)">
            <circle id="Ellipse_148" data-name="Ellipse 148" cx="27.5" cy="27.5" r="27.5" transform="translate(-317.471 817.065)" fill="#ffdfa6"/>
            <circle id="Ellipse_149" data-name="Ellipse 149" cx="27.5" cy="27.5" r="27.5" transform="translate(-261.471 761.065)" fill="#ffdfa6"/>
          </g>
        </g>
      </g>
    </g>
    <g id="Group_218" data-name="Group 218">
      <path id="Path_1130" data-name="Path 1130" d="M-270.729,827.2a7.262,7.262,0,0,1-5.843-2.981l1.2-1.867a6.144,6.144,0,0,0,4.608,2.469c2.318,0,3.613-1.415,3.613-4.065v-12.5h-7.528v-2.229h9.968v14.786C-264.706,824.908-266.965,827.2-270.729,827.2Z" fill="#fff"/>
      <path id="Path_1131" data-name="Path 1131" d="M-254.718,808.284c-2.711,0-4.488,1.084-4.488,2.891,0,5.481,11.866,2.62,11.835,10.27,0,3.493-3.1,5.751-7.619,5.751a12.026,12.026,0,0,1-8.07-3.222l1.084-2.078a10.591,10.591,0,0,0,7.017,2.952c3.041,0,4.939-1.235,4.939-3.283.03-5.632-11.836-2.65-11.836-10.209,0-3.313,2.921-5.421,7.288-5.421a12.478,12.478,0,0,1,6.686,1.958l-1.024,2.138A11.1,11.1,0,0,0-254.718,808.284Z" fill="#fff"/>
    </g>
  </g>
</svg>
