<svg xmlns="http://www.w3.org/2000/svg" width="50.499" height="66.516" viewBox="0 0 50.499 66.516">
  <g id="Group_18" data-name="Group 18" transform="translate(-239.515 -41.541)">
    <path id="Path_27" data-name="Path 27" d="M248.691,71.47c-.117,2.03.142,4.481,1.951,5.408a6.279,6.279,0,0,0,2.894.408,27.921,27.921,0,0,1,5.853.623c2.453.527,5.307,1.857,7.813,1.5,2.681-.379,5.04-1.952,7.739-2.271a41.306,41.306,0,0,1,4.626.056,6.071,6.071,0,0,0,4.289-1.411,6.63,6.63,0,0,0,1.572-4.2,31.187,31.187,0,0,0-1.969-13.267,72.385,72.385,0,0,0-4.22-9.3c-1.448-2.764-4.143-2.031-5.982-4.6-3.721-5.2-13.531-2.829-17.741,2.956a24.575,24.575,0,0,0-3.467,7.935c-.734,2.61-1.461,5.245-2.1,7.876A45.964,45.964,0,0,0,248.691,71.47Z" transform="translate(-1.89)" fill="#f8efd4"/>
    <path id="Path_28" data-name="Path 28" d="M290.014,118.271h-50.5s2.022-16.952,3.313-20.638c.763-2.184,5.992-3.467,10.392-4.53l.934-.22c2.622-.641,4.8-1.218,5.269-1.892h10.684c.478.682,2.7,1.258,5.358,1.908.309.073.617.154.942.227,4.376,1.064,9.54,2.338,10.295,4.506C287.993,101.319,290.014,118.271,290.014,118.271Z" transform="translate(0 -10.215)" fill="#ffd5c2"/>
    <path id="Path_29" data-name="Path 29" d="M276.119,89.322l-6.463,3.22-6.463-3.22a13.009,13.009,0,0,0,1.523-4.177,23.5,23.5,0,0,0,.516-5.641h8.848a23.763,23.763,0,0,0,.271,4.289A14.25,14.25,0,0,0,276.119,89.322Z" transform="translate(-4.891 -7.842)" fill="#ffd5c2"/>
    <path id="Path_30" data-name="Path 30" d="M274.746,83.793c-3.133,1.672-7.607,1.524-9.634,1.352a23.5,23.5,0,0,0,.516-5.641h8.848A23.763,23.763,0,0,0,274.746,83.793Z" transform="translate(-5.287 -7.842)" fill="#f6ae8d"/>
    <path id="Path_31" data-name="Path 31" d="M258.619,67.166s-1.037-4.1-3.617-2.284,0,7.813,3.636,7.78C258.638,72.663,259.608,68.641,258.619,67.166Z" transform="translate(-2.984 -4.725)" fill="#ffd5c2"/>
    <path id="Path_32" data-name="Path 32" d="M256.338,67.413a3.316,3.316,0,0,1,1.317,1.091,4.024,4.024,0,0,1,.9,1.45c.043.166-.19.238-.286.125-.271-.317-.476-.682-.725-1.02a1.872,1.872,0,0,1-.749.465c-.225.055-.354-.232-.239-.4a1.686,1.686,0,0,1,.628-.478,8.784,8.784,0,0,1-1.034-.976A.168.168,0,0,1,256.338,67.413Z" transform="translate(-3.428 -5.342)" fill="#f6ae8d"/>
    <path id="Path_33" data-name="Path 33" d="M282.985,67.166s1.037-4.1,3.616-2.284,0,7.813-3.635,7.78C282.967,72.663,282,68.641,282.985,67.166Z" transform="translate(-8.888 -4.725)" fill="#ffd5c2"/>
    <path id="Path_34" data-name="Path 34" d="M285.959,67.413a3.327,3.327,0,0,0-1.317,1.091,4.022,4.022,0,0,0-.894,1.45c-.044.166.19.238.286.125.271-.317.476-.682.724-1.02a1.878,1.878,0,0,0,.749.465c.225.055.355-.232.24-.4a1.689,1.689,0,0,0-.629-.478,8.722,8.722,0,0,0,1.034-.976A.168.168,0,0,0,285.959,67.413Z" transform="translate(-9.136 -5.342)" fill="#f6ae8d"/>
    <path id="Path_35" data-name="Path 35" d="M278.659,58.459c-2.146-10.295-10.041-9.573-10.041-9.573s-7.9-.722-10.042,9.573a19.73,19.73,0,0,0,.918,11.456c1.392,3.422,4.066,7.107,9.124,7.107s7.731-3.685,9.123-7.107A19.729,19.729,0,0,0,278.659,58.459Z" transform="translate(-3.845 -1.515)" fill="#ffd5c2"/>
    <path id="Path_36" data-name="Path 36" d="M265.174,65.841s-.877.326-.744-1.226c.12-1.4.744-1.207.744-1.207s.609,0,.517,1.216S265.174,65.841,265.174,65.841Z" transform="translate(-5.143 -4.515)" fill="#3b2645"/>
    <path id="Path_37" data-name="Path 37" d="M276.446,65.841s-.877.326-.743-1.226c.119-1.4.743-1.207.743-1.207s.609,0,.517,1.216S276.446,65.841,276.446,65.841Z" transform="translate(-7.472 -4.515)" fill="#3b2645"/>
    <path id="Path_38" data-name="Path 38" d="M272.616,75.191a9.887,9.887,0,0,1-2.186.713c-.738.043-1.385-.328-2.081-.315a.111.111,0,0,0-.1.165c.8,1.249,3.837.862,4.541-.33A.16.16,0,0,0,272.616,75.191Z" transform="translate(-5.933 -6.95)" fill="#f6ae8d"/>
    <path id="Path_39" data-name="Path 39" d="M266.266,60.42a2.307,2.307,0,0,0-1.506-.342c-.468.007-1.143.009-1.454.4a.085.085,0,0,0,.036.14,3.968,3.968,0,0,0,1.316-.053,13.784,13.784,0,0,0,1.5.117C266.273,60.668,266.383,60.514,266.266,60.42Z" transform="translate(-4.909 -3.829)" fill="#3b2645"/>
    <path id="Path_40" data-name="Path 40" d="M277.757,60.138a1.29,1.29,0,0,0-1.319-.525c-.478.042-1.2.178-1.453.632a.124.124,0,0,0,.074.18c.383.1.716-.125,1.091-.2a2.926,2.926,0,0,1,1.409.171A.178.178,0,0,0,277.757,60.138Z" transform="translate(-7.323 -3.731)" fill="#3b2645"/>
    <path id="Path_41" data-name="Path 41" d="M270.529,69.92c-.392-.083-1.324-.071-1.475-.376a11.8,11.8,0,0,1,.68-2.189A8.927,8.927,0,0,0,270,63.638a.071.071,0,0,0-.136,0c-.242,1.034-.251,2.106-.471,3.148s-.6,2.045-.921,3.07a.2.2,0,0,0,.186.244,5.133,5.133,0,0,0,1.873.025A.106.106,0,0,0,270.529,69.92Z" transform="translate(-5.979 -4.554)" fill="#f6ae8d"/>
    <path id="Path_42" data-name="Path 42" d="M284.5,118.764H249.167a14.763,14.763,0,0,1,.982-10.944H251.6L255.077,93.6l.934-.22-3.524,14.444h28.359l-3.524-14.427c.309.073.617.154.942.227l3.467,14.2h1.713A17.556,17.556,0,0,1,284.5,118.764Z" transform="translate(-1.858 -10.707)" fill="#c03ae9"/>
    <path id="Path_43" data-name="Path 43" d="M257.931,61.244s.852-4.2,3.532-5.952,5.358-6.079,5.358-6.079,2.149,3.362,5.879,3.53,6.2,8.937,6.2,8.937l2.538-4.634-6.559-9.822h-8.923l-8.022,3.709S256.225,59.567,257.931,61.244Z" transform="translate(-3.647 -1.174)" fill="#f8efd4"/>
    <path id="Path_44" data-name="Path 44" d="M240.765,105.072s26.67,1.949,48.1,0c0,0,.95,6.332,1.144,9.5,0,0-32.994,2.679-50.5-.731Z" transform="translate(0 -13.123)" fill="#b881c9"/>
    <path id="Path_45" data-name="Path 45" d="M280.631,50.876c-.532.448-1.044.917-1.532,1.414a3.85,3.85,0,0,0-1.1,1.526.308.308,0,0,0,.447.344,5.64,5.64,0,0,0,1.42-1.235c.474-.466.971-.905,1.485-1.327S281.133,50.453,280.631,50.876Z" transform="translate(-7.947 -1.902)" fill="#132743"/>
    <path id="Path_46" data-name="Path 46" d="M280.981,53.493a4.686,4.686,0,0,0-1.354,1.846.222.222,0,0,0,.27.27,4.619,4.619,0,0,0,1.757-1.442C282.081,53.725,281.4,53.042,280.981,53.493Z" transform="translate(-8.284 -2.438)" fill="#132743"/>
  </g>
</svg>
