<svg xmlns="http://www.w3.org/2000/svg" width="60.255" height="66.174" viewBox="0 0 60.255 66.174">
  <g id="Group_20" data-name="Group 20" transform="translate(-330.194 -242.237)">
    <path id="Path_68" data-name="Path 68" d="M354.924,259.486s-1.013-5.6.16-9.517a5.223,5.223,0,0,1,3.514-3.5c.031-.009.622-3.922,8.668-4.217s14.427,3.13,12.861,17.252l-2.009,3.193-10.926-10.553s-9.362,6.055-10.187,8.933S354.924,259.486,354.924,259.486Z" transform="translate(-6.943)" fill="#3b2645"/>
    <path id="Path_69" data-name="Path 69" d="M390.449,324.1H330.194s0-17.68,2.735-19.427c.044-.029.088-.051.131-.08a40.3,40.3,0,0,1,4.863-2.084c.767-.293,1.593-.6,2.434-.907,1.038-.38,2.12-.768,3.188-1.141,2.88-1.016,5.688-1.966,7.509-2.573.088-.029.169-.059.242-.081.234-.081.453-.154.643-.212.4-.139.695-.232.892-.3.175-.059.269-.089.269-.089h14.441a.186.186,0,0,0,.044.016c.058.022.161.049.292.093a.658.658,0,0,1,.109.037c.219.073.519.168.885.292.124.044.256.088.4.131a.467.467,0,0,0,.059.022,1.862,1.862,0,0,1,.263.088c.131.044.271.089.417.14a1.154,1.154,0,0,1,.153.05c1.777.592,4.263,1.44,6.815,2.339,1.513.534,3.049,1.082,4.475,1.616.4.146.775.293,1.148.432a37.739,37.739,0,0,1,5.111,2.208,4.78,4.78,0,0,1,1.345,2.742C390.449,312.857,390.449,324.1,390.449,324.1Z" transform="translate(0 -15.692)" fill="#9c4345"/>
    <path id="Path_70" data-name="Path 70" d="M376.692,293.565l-6.784,1.141v.188l-.564-.089-.553.089v-.188l-6.539-1.141.354-2.854.775-6.275H375.32l.664,4.449Z" transform="translate(-9.15 -12.045)" fill="#9c4345"/>
    <path id="Path_71" data-name="Path 71" d="M376.125,288.885a25.712,25.712,0,0,1-13.379,1.826l.775-6.275h11.94Z" transform="translate(-9.292 -12.045)" fill="#753233"/>
    <path id="Path_72" data-name="Path 72" d="M386.693,269.015s1-3.938,3.471-2.192,0,7.5-3.489,7.469C386.675,274.291,385.744,270.431,386.693,269.015Z" transform="translate(-16.005 -6.89)" fill="#9c4345"/>
    <path id="Path_73" data-name="Path 73" d="M389.674,269.569a3.192,3.192,0,0,0-1.264,1.048,3.847,3.847,0,0,0-.859,1.391c-.041.159.182.229.275.121.26-.3.457-.655.7-.98a1.8,1.8,0,0,0,.72.446c.215.053.34-.222.229-.382a1.628,1.628,0,0,0-.6-.459,8.323,8.323,0,0,0,.993-.937A.161.161,0,0,0,389.674,269.569Z" transform="translate(-16.371 -7.8)" fill="#753233"/>
    <path id="Path_74" data-name="Path 74" d="M356.131,268.494s-1-3.938-3.472-2.192,0,7.5,3.489,7.469C356.148,273.77,357.079,269.91,356.131,268.494Z" transform="translate(-6.127 -6.742)" fill="#9c4345"/>
    <path id="Path_75" data-name="Path 75" d="M354.168,269.047a3.2,3.2,0,0,1,1.264,1.048,3.84,3.84,0,0,1,.859,1.391c.041.159-.182.229-.274.121-.261-.3-.457-.655-.7-.98a1.8,1.8,0,0,1-.72.446c-.215.053-.339-.222-.229-.382a1.634,1.634,0,0,1,.6-.459,8.378,8.378,0,0,1-.992-.937A.162.162,0,0,1,354.168,269.047Z" transform="translate(-6.781 -7.651)" fill="#753233"/>
    <path id="Path_76" data-name="Path 76" d="M378.694,259.043c-2.324-11.147-10.873-10.365-10.873-10.365s-8.548-.782-10.873,10.365a21.373,21.373,0,0,0,.994,12.4c1.508,3.7,4.4,7.7,9.879,7.7s8.372-3.99,9.879-7.7A21.367,21.367,0,0,0,378.694,259.043Z" transform="translate(-7.498 -1.835)" fill="#9c4345"/>
    <path id="Path_77" data-name="Path 77" d="M372.232,272.268c-.5-.05-1.623.3-1.883-.221-.217-.437.451-3.11.541-3.568a44.58,44.58,0,0,0,.909-4.74.093.093,0,0,0-.175-.039c-1.02,2.652-1.288,5.882-1.847,8.672a.247.247,0,0,0,.25.3c.727-.048,1.442.071,2.168.039C372.437,272.7,372.489,272.293,372.232,272.268Z" transform="translate(-11.297 -6.112)" fill="#753233"/>
    <path id="Path_78" data-name="Path 78" d="M367.447,280.177h6.873s-1.288,2.436-3.436,2.436S367.447,280.177,367.447,280.177Z" transform="translate(-10.634 -10.83)" fill="#fff"/>
    <path id="Path_79" data-name="Path 79" d="M365.4,267.626s-.94.349-.8-1.314c.128-1.5.8-1.294.8-1.294s.653-.005.554,1.3S365.4,267.626,365.4,267.626Z" transform="translate(-9.817 -6.5)" fill="#3b2645"/>
    <path id="Path_80" data-name="Path 80" d="M377.952,267.626s-.94.349-.8-1.314c.128-1.5.8-1.294.8-1.294s.653-.005.555,1.3S377.952,267.626,377.952,267.626Z" transform="translate(-13.4 -6.5)" fill="#3b2645"/>
    <path id="Path_81" data-name="Path 81" d="M366.314,261.68c-.807-.412-2.318-.521-2.905.319a.251.251,0,0,0,.215.375c.4-.021.755-.215,1.158-.249a3.256,3.256,0,0,1,1.263.194A.352.352,0,0,0,366.314,261.68Z" transform="translate(-9.47 -5.46)" fill="#3b2645"/>
    <path id="Path_82" data-name="Path 82" d="M378.866,261.68c-.808-.412-2.318-.521-2.906.319a.251.251,0,0,0,.215.375c.4-.021.756-.215,1.158-.249a3.251,3.251,0,0,1,1.263.194A.352.352,0,0,0,378.866,261.68Z" transform="translate(-13.053 -5.46)" fill="#3b2645"/>
    <path id="Path_83" data-name="Path 83" d="M363.319,250.108s5.094,1.04,8.563-.88,9.318,7.953,9.155,12.061l1.091-4.679-5.226-9.892-9.93-.738S362.359,248.477,363.319,250.108Z" transform="translate(-9.418 -1.068)" fill="#3b2645"/>
    <path id="Path_84" data-name="Path 84" d="M361.006,251.7a29.321,29.321,0,0,0-4.842,10.793l-1.078-1.891S356.853,250.157,361.006,251.7Z" transform="translate(-7.105 -2.656)" fill="#3b2645"/>
    <path id="Path_85" data-name="Path 85" d="M334.2,304.6c2.537,4.76,9.235,12.385,9.542,19.507h36.032c.168-4.38,6.522-10.653,10.419-16.685a4.782,4.782,0,0,0-1.345-2.742,37.733,37.733,0,0,0-5.111-2.208c-.373-.139-.753-.285-1.148-.432-1.426-.533-2.961-1.082-4.475-1.616-2.552-.9-5.038-1.748-6.815-2.339a1.154,1.154,0,0,0-.153-.05c-.147-.051-.286-.1-.417-.14a1.892,1.892,0,0,0-.263-.088.462.462,0,0,1-.059-.022c-.139-.044-.271-.088-.4-.131-.365-.124-.665-.219-.885-.292a.658.658,0,0,0-.109-.037c-.132-.044-.234-.073-.285-.1a27.351,27.351,0,0,1-14.762.075c-.2.066-.5.159-.892.3-.19.059-.409.132-.643.212-.074.022-.154.051-.242.081-.109.036-.227.073-.351.116Z" transform="translate(-1.145 -15.697)" fill="#2f8dbd"/>
    <path id="Path_86" data-name="Path 86" d="M378.091,298.037l-9.659,20.4L358.517,298.1c1.133-.38,1.989-.667,2.4-.8a27.333,27.333,0,0,0,14.755-.073C375.9,297.306,376.789,297.6,378.091,298.037Z" transform="translate(-8.085 -15.698)" fill="#23698c"/>
  </g>
</svg>
