<svg xmlns="http://www.w3.org/2000/svg" width="60.563" height="66.511" viewBox="0 0 60.563 66.511">
  <g id="Group_17" data-name="Group 17" transform="translate(-128.696 -31.744)">
    <path id="Path_4" data-name="Path 4" d="M153.431,49.082s-1.018-5.628.161-9.566A5.251,5.251,0,0,1,157.124,36c.032-.009.625-3.942,8.713-4.238s14.5,3.146,12.927,17.341l-2.02,3.208L165.763,41.7s-9.409,6.086-10.24,8.978S153.431,49.082,153.431,49.082Z" transform="translate(-6.855)" fill="#132743"/>
    <path id="Path_5" data-name="Path 5" d="M189.259,113.748H128.7s0-17.763,2.756-19.52c1.411-.9,6.739-2.858,11.575-4.556,1.264-.441,2.491-.86,3.608-1.235,2.925-1,5.086-1.712,5.086-1.712h14.514s2.263.743,5.3,1.778c1.676.573,3.587,1.235,5.476,1.9a76.49,76.49,0,0,1,9.5,3.821C189.259,95.985,189.259,113.748,189.259,113.748Z" transform="translate(0 -15.493)" fill="#ffd5c2"/>
    <path id="Path_6" data-name="Path 6" d="M175.268,83.124l-6.07,1.014-.75.125v.191l-.566-.088-.4.066-.154.022v-.191l-6.577-1.139.169-1.33.189-1.543.779-6.306h12l.664,4.47.41,2.74Z" transform="translate(-9.034 -11.892)" fill="#ffd5c2"/>
    <path id="Path_7" data-name="Path 7" d="M174.7,78.414a25.835,25.835,0,0,1-13.444,1.836l.779-6.306h12Z" transform="translate(-9.174 -11.891)" fill="#f6ae8d"/>
    <path id="Path_8" data-name="Path 8" d="M185.2,58.535s1-3.958,3.489-2.2,0,7.538-3.507,7.507C185.182,63.839,184.246,59.96,185.2,58.535Z" transform="translate(-15.801 -6.802)" fill="#ffd5c2"/>
    <path id="Path_9" data-name="Path 9" d="M188.19,59.076a3.208,3.208,0,0,0-1.271,1.053,3.876,3.876,0,0,0-.863,1.4c-.042.16.183.23.277.121.261-.306.46-.659.7-.985a1.8,1.8,0,0,0,.723.448c.216.053.342-.223.231-.384a1.637,1.637,0,0,0-.607-.462,8.368,8.368,0,0,0,1-.942A.162.162,0,0,0,188.19,59.076Z" transform="translate(-16.162 -7.7)" fill="#f6ae8d"/>
    <path id="Path_10" data-name="Path 10" d="M154.659,58.014s-1-3.958-3.49-2.2,0,7.538,3.508,7.507C154.677,63.318,155.613,59.439,154.659,58.014Z" transform="translate(-6.049 -6.655)" fill="#ffd5c2"/>
    <path id="Path_11" data-name="Path 11" d="M152.675,58.555a3.21,3.21,0,0,1,1.271,1.053,3.874,3.874,0,0,1,.863,1.4c.042.16-.183.23-.276.121-.261-.306-.46-.659-.7-.985a1.807,1.807,0,0,1-.723.448c-.217.053-.342-.223-.231-.384a1.642,1.642,0,0,1,.607-.462,8.362,8.362,0,0,1-1-.942A.162.162,0,0,1,152.675,58.555Z" transform="translate(-6.695 -7.553)" fill="#f6ae8d"/>
    <path id="Path_12" data-name="Path 12" d="M177.313,48.6c-2.336-11.2-10.928-10.418-10.928-10.418S157.793,37.4,155.456,48.6a21.482,21.482,0,0,0,1,12.468c1.515,3.724,4.425,7.734,9.929,7.734s8.415-4.01,9.93-7.734A21.482,21.482,0,0,0,177.313,48.6Z" transform="translate(-7.403 -1.812)" fill="#ffd5c2"/>
    <path id="Path_13" data-name="Path 13" d="M170.75,61.819c-.5-.05-1.631.3-1.893-.223-.218-.439.453-3.126.544-3.585a44.822,44.822,0,0,0,.914-4.765.094.094,0,0,0-.176-.038c-1.025,2.665-1.295,5.912-1.857,8.716a.248.248,0,0,0,.252.3c.73-.047,1.449.071,2.178.04C170.957,62.25,171.008,61.844,170.75,61.819Z" transform="translate(-11.154 -6.034)" fill="#f6ae8d"/>
    <path id="Path_14" data-name="Path 14" d="M163.909,57.147s-.944.351-.8-1.321c.129-1.5.8-1.3.8-1.3s.656,0,.557,1.311S163.909,57.147,163.909,57.147Z" transform="translate(-9.693 -6.417)" fill="#132743"/>
    <path id="Path_15" data-name="Path 15" d="M176.461,57.147s-.944.351-.8-1.321c.129-1.5.8-1.3.8-1.3s.656,0,.557,1.311S176.461,57.147,176.461,57.147Z" transform="translate(-13.23 -6.417)" fill="#132743"/>
    <path id="Path_16" data-name="Path 16" d="M164.834,51.189c-.812-.414-2.331-.524-2.921.321a.252.252,0,0,0,.216.377c.4-.021.76-.216,1.164-.25a3.286,3.286,0,0,1,1.269.2A.354.354,0,0,0,164.834,51.189Z" transform="translate(-9.35 -5.391)" fill="#132743"/>
    <path id="Path_17" data-name="Path 17" d="M177.387,51.189c-.812-.414-2.33-.524-2.921.321a.252.252,0,0,0,.217.377c.4-.021.759-.216,1.164-.25a3.286,3.286,0,0,1,1.269.2A.354.354,0,0,0,177.387,51.189Z" transform="translate(-12.887 -5.391)" fill="#132743"/>
    <path id="Path_18" data-name="Path 18" d="M161.824,39.636s5.12,1.045,8.608-.884,9.365,7.994,9.2,12.123l1.1-4.7-5.253-9.943-9.98-.742S160.86,38,161.824,39.636Z" transform="translate(-9.298 -1.055)" fill="#132743"/>
    <path id="Path_19" data-name="Path 19" d="M159.541,41.2a29.471,29.471,0,0,0-4.867,10.849l-1.084-1.9S155.368,39.657,159.541,41.2Z" transform="translate(-7.015 -2.622)" fill="#132743"/>
    <path id="Path_20" data-name="Path 20" d="M168.273,66.925s-4.558.429-4.635,3.456-1.069,6.164,4.635,6.869,5.848-3.842,6.107-5.744S173.729,66.808,168.273,66.925Z" transform="translate(-9.814 -9.912)" fill="#132743"/>
    <path id="Path_21" data-name="Path 21" d="M167.725,72.665a1.614,1.614,0,0,1-.621-1.912c.306-.882.744-1.041,2.29-1.323,3.024-.551,3.748,1.433,3.368,2.535C172.575,72.512,169.4,73.427,167.725,72.665Z" transform="translate(-10.798 -10.593)" fill="#ffd5c2"/>
    <path id="Path_22" data-name="Path 22" d="M171.489,70.741a4.386,4.386,0,0,1-1.655.318,5.315,5.315,0,0,0-1.347-.116.106.106,0,0,0-.063.156,1.747,1.747,0,0,0,1.411.508,3.881,3.881,0,0,0,1.866-.368C171.976,71.109,171.78,70.634,171.489,70.741Z" transform="translate(-11.19 -10.984)" fill="#f6ae8d"/>
    <path id="Path_23" data-name="Path 23" d="M182.631,89.635,169.425,101.8l-18.416-2.33L148.649,88.9c1.264-.441,2.491-.86,3.608-1.235,2.925-1,5.086-1.712,5.086-1.712l.169-1.33a11.92,11.92,0,0,1,4.924,1.33,6.515,6.515,0,0,1,1.485,1.139c.052.052.1.111.154.17a5.035,5.035,0,0,1,.705,1.021,8.683,8.683,0,0,1,1.007-1.316,9.253,9.253,0,0,1,1.044-1.014,8.3,8.3,0,0,1,4.725-1.969l.3,1.969s2.263.743,5.3,1.778C178.832,88.3,180.742,88.965,182.631,89.635Z" transform="translate(-5.623 -14.72)" fill="#132743"/>
    <path id="Path_24" data-name="Path 24" d="M189.259,114.42H128.7s0-17.763,2.756-19.52c1.411-.9,6.739-2.858,11.575-4.556,1.264-.441,2.491-.86,3.608-1.235C147.869,92.791,151.3,100.1,159.1,100.1c7.746,0,11.178-7.225,12.434-10.921,1.676.573,3.587,1.235,5.476,1.9a76.49,76.49,0,0,1,9.5,3.821C189.259,96.657,189.259,114.42,189.259,114.42Z" transform="translate(0 -16.165)" fill="#132743"/>
    <path id="Path_25" data-name="Path 25" d="M171.736,99.177a.571.571,0,0,0-.363-.141l-.073,0a.7.7,0,0,0-.686.687v.065a.691.691,0,0,0,.347.6.772.772,0,0,0,1.151-.488A.654.654,0,0,0,171.736,99.177Z" transform="translate(-11.812 -18.961)" fill="#fff"/>
    <path id="Path_26" data-name="Path 26" d="M171.736,93.029a.571.571,0,0,0-.363-.141l-.073,0a.7.7,0,0,0-.686.687v.065a.691.691,0,0,0,.347.6.772.772,0,0,0,1.151-.488A.654.654,0,0,0,171.736,93.029Z" transform="translate(-11.812 -17.229)" fill="#fff"/>
  </g>
</svg>
