<svg xmlns="http://www.w3.org/2000/svg" width="60.252" height="66.174" viewBox="0 0 60.252 66.174">
  <g id="Group_22" data-name="Group 22" transform="translate(-128.624 -242.046)">
    <path id="Path_87" data-name="Path 87" d="M153.353,259.295s-1.012-5.6.16-9.517a5.224,5.224,0,0,1,3.515-3.5c.031-.009.622-3.921,8.668-4.217s14.426,3.13,12.861,17.252l-2.01,3.192-10.924-10.552s-9.362,6.056-10.188,8.932S153.353,259.295,153.353,259.295Z" transform="translate(-6.944)" fill="#8d2f21"/>
    <path id="Path_88" data-name="Path 88" d="M188.876,323.915H128.624s0-17.678,2.734-19.426c1.821-1.155,10.118-4.065,15.485-5.893,2.719-.929,4.686-1.573,4.686-1.573h14.44s1.989.651,4.73,1.587c5.367,1.828,13.621,4.723,15.434,5.878C188.876,306.237,188.876,323.915,188.876,323.915Z" transform="translate(0 -15.695)" fill="#ffd5c2"/>
    <path id="Path_89" data-name="Path 89" d="M175.121,293.376l-6.784,1.139v.188l-.564-.089-.553.089v-.188l-6.539-1.139.353-2.856.775-6.274h11.94l.664,4.448Z" transform="translate(-9.152 -12.047)" fill="#ffd5c2"/>
    <path id="Path_90" data-name="Path 90" d="M174.554,288.694a25.708,25.708,0,0,1-13.379,1.826l.775-6.274h11.94Z" transform="translate(-9.293 -12.047)" fill="#f6ae8d"/>
    <path id="Path_91" data-name="Path 91" d="M185.122,268.825s1-3.938,3.472-2.193,0,7.5-3.49,7.469C185.1,274.1,184.173,270.241,185.122,268.825Z" transform="translate(-16.007 -6.891)" fill="#ffd5c2"/>
    <path id="Path_92" data-name="Path 92" d="M188.1,269.378a3.189,3.189,0,0,0-1.265,1.047,3.861,3.861,0,0,0-.858,1.391c-.041.159.181.229.274.121.26-.3.457-.655.7-.979a1.8,1.8,0,0,0,.719.446c.216.052.34-.222.23-.382a1.626,1.626,0,0,0-.6-.459,8.437,8.437,0,0,0,.992-.937A.162.162,0,0,0,188.1,269.378Z" transform="translate(-16.373 -7.801)" fill="#f6ae8d"/>
    <path id="Path_93" data-name="Path 93" d="M154.56,268.3s-1-3.938-3.472-2.193,0,7.5,3.49,7.469C154.578,273.58,155.509,269.72,154.56,268.3Z" transform="translate(-6.127 -6.743)" fill="#ffd5c2"/>
    <path id="Path_94" data-name="Path 94" d="M152.6,268.857a3.192,3.192,0,0,1,1.264,1.047,3.872,3.872,0,0,1,.859,1.391c.041.159-.182.229-.275.121-.26-.3-.457-.655-.7-.979a1.808,1.808,0,0,1-.72.446c-.216.052-.34-.222-.229-.382a1.615,1.615,0,0,1,.6-.459,8.391,8.391,0,0,1-.993-.937A.162.162,0,0,1,152.6,268.857Z" transform="translate(-6.781 -7.652)" fill="#f6ae8d"/>
    <path id="Path_95" data-name="Path 95" d="M177.123,258.852c-2.324-11.146-10.872-10.365-10.872-10.365s-8.549-.782-10.872,10.365a21.363,21.363,0,0,0,.994,12.4c1.507,3.706,4.4,7.7,9.878,7.7s8.371-3.99,9.878-7.7A21.369,21.369,0,0,0,177.123,258.852Z" transform="translate(-7.499 -1.835)" fill="#ffd5c2"/>
    <path id="Path_96" data-name="Path 96" d="M170.662,272.076c-.5-.049-1.623.3-1.883-.221-.216-.437.451-3.11.541-3.568a44.424,44.424,0,0,0,.91-4.74.093.093,0,0,0-.175-.039c-1.02,2.651-1.289,5.882-1.848,8.671a.247.247,0,0,0,.251.3c.727-.048,1.442.071,2.168.039C170.867,272.506,170.918,272.1,170.662,272.076Z" transform="translate(-11.299 -6.113)" fill="#f6ae8d"/>
    <path id="Path_97" data-name="Path 97" d="M165.877,279.987h6.872s-1.289,2.436-3.436,2.436S165.877,279.987,165.877,279.987Z" transform="translate(-10.635 -10.831)" fill="#fff"/>
    <path id="Path_98" data-name="Path 98" d="M163.829,267.435s-.94.349-.8-1.314c.129-1.5.8-1.294.8-1.294s.653,0,.554,1.3S163.829,267.435,163.829,267.435Z" transform="translate(-9.818 -6.501)" fill="#3b2645"/>
    <path id="Path_99" data-name="Path 99" d="M176.382,267.435s-.94.349-.8-1.314c.128-1.5.8-1.294.8-1.294s.653,0,.554,1.3S176.382,267.435,176.382,267.435Z" transform="translate(-13.402 -6.501)" fill="#3b2645"/>
    <path id="Path_100" data-name="Path 100" d="M164.743,261.489c-.808-.411-2.318-.521-2.906.32a.25.25,0,0,0,.215.374c.4-.02.756-.215,1.158-.249a3.264,3.264,0,0,1,1.263.194A.352.352,0,0,0,164.743,261.489Z" transform="translate(-9.471 -5.461)" fill="#3b2645"/>
    <path id="Path_101" data-name="Path 101" d="M177.3,261.489c-.808-.411-2.318-.521-2.906.32a.25.25,0,0,0,.215.374c.4-.02.756-.215,1.158-.249a3.264,3.264,0,0,1,1.263.194A.352.352,0,0,0,177.3,261.489Z" transform="translate(-13.055 -5.461)" fill="#3b2645"/>
    <path id="Path_102" data-name="Path 102" d="M159.435,251.505a29.317,29.317,0,0,0-4.841,10.792l-1.079-1.891S155.283,249.967,159.435,251.505Z" transform="translate(-7.106 -2.656)" fill="#8d2f21"/>
    <path id="Path_103" data-name="Path 103" d="M188.876,324.543H128.624s0-17.678,2.734-19.426c1.821-1.155,10.118-4.065,15.485-5.893,1.052,3.334,4.27,10.8,11.939,10.8s10.865-7.443,11.917-10.784c5.367,1.828,13.621,4.723,15.434,5.878C188.876,306.865,188.876,324.543,188.876,324.543Z" transform="translate(0 -16.323)" fill="#1f457b"/>
    <path id="Path_104" data-name="Path 104" d="M161.8,249.761s5.387,3.77,9.785,2.539,5.995,7.655,3.147,11.119c0,0,7.122-4.133,4.849-11.119S161.547,241.887,161.8,249.761Z" transform="translate(-9.47 -0.912)" fill="#8d2f21"/>
  </g>
</svg>
