<svg xmlns="http://www.w3.org/2000/svg" xmlns:xlink="http://www.w3.org/1999/xlink" width="55" height="55" viewBox="0 0 55 55">
  <defs>
    <clipPath id="clip-path">
      <rect id="Rectangle_106" data-name="Rectangle 106" width="55" height="55" rx="5.016" transform="translate(-425 789)" fill="#45eee2"/>
    </clipPath>
  </defs>
  <g id="Group_205" data-name="Group 205" transform="translate(425 -789)">
    <g id="Group_207" data-name="Group 207">
      <g id="Group_206" data-name="Group 206">
        <rect id="Rectangle_105" data-name="Rectangle 105" width="55" height="55" rx="5.016" transform="translate(-425 789)" fill="#45eee2"/>
        <g id="Group_205-2" data-name="Group 205" clip-path="url(#clip-path)">
          <circle id="Ellipse_144" data-name="Ellipse 144" cx="27.5" cy="27.5" r="27.5" transform="translate(-453 817)" fill="#9ffff6"/>
          <circle id="Ellipse_145" data-name="Ellipse 145" cx="27.5" cy="27.5" r="27.5" transform="translate(-397 761)" fill="#9ffff6"/>
        </g>
      </g>
    </g>
    <g id="Group_208" data-name="Group 208">
      <path id="Path_1123" data-name="Path 1123" d="M-404.678,831.817h6.153V820.538a3.078,3.078,0,0,1,3.076-3.076H-380v-2.051h-24.678Zm0,0" fill="#fff"/>
      <path id="Path_1124" data-name="Path 1124" d="M-404.678,812.335v1.025H-380v-2.051h-23.652a1.027,1.027,0,0,0-1.026,1.026Zm0,0" fill="#fff"/>
      <path id="Path_1125" data-name="Path 1125" d="M-396.475,820.538v1.025H-380v-2.051h-15.449a1.027,1.027,0,0,0-1.026,1.026Zm0,0" fill="#fff"/>
      <path id="Path_1126" data-name="Path 1126" d="M-383.076,801.055h-28.848A3.08,3.08,0,0,0-415,804.131v1.026h35v-1.026a3.08,3.08,0,0,0-3.076-3.076Zm0,0" fill="#fff"/>
      <path id="Path_1127" data-name="Path 1127" d="M-415,828.741a3.08,3.08,0,0,0,3.076,3.076h5.2V812.335a3.079,3.079,0,0,1,3.076-3.077H-380v-2.05h-35Zm0,0" fill="#fff"/>
      <path id="Path_1128" data-name="Path 1128" d="M-396.475,831.817h13.4A3.08,3.08,0,0,0-380,828.741v-5.127h-16.475Zm0,0" fill="#fff"/>
    </g>
  </g>
</svg>
